<?xml version="1.0" encoding="UTF-8" standalone="no"?>
<!-- Generator: Adobe Illustrator 21.0.0, SVG Export Plug-In . SVG Version: 6.00 Build 0)  -->

<svg
   xmlns:dc="http://purl.org/dc/elements/1.1/"
   xmlns:cc="http://creativecommons.org/ns#"
   xmlns:rdf="http://www.w3.org/1999/02/22-rdf-syntax-ns#"
   xmlns:svg="http://www.w3.org/2000/svg"
   xmlns="http://www.w3.org/2000/svg"
   xmlns:sodipodi="http://sodipodi.sourceforge.net/DTD/sodipodi-0.dtd"
   xmlns:inkscape="http://www.inkscape.org/namespaces/inkscape"
   version="1.1"
   id="Layer_1"
   x="0px"
   y="0px"
   viewBox="0 0 600 600"
   style="enable-background:new 0 0 600 600;"
   xml:space="preserve"
   sodipodi:docname="logos.svg"
   inkscape:version="0.92.4 (5da689c313, 2019-01-14)"><metadata
   id="metadata65"><rdf:RDF><cc:Work
       rdf:about=""><dc:format>image/svg+xml</dc:format><dc:type
         rdf:resource="http://purl.org/dc/dcmitype/StillImage" /></cc:Work></rdf:RDF></metadata><defs
   id="defs63" /><sodipodi:namedview
   pagecolor="#ffffff"
   bordercolor="#666666"
   borderopacity="1"
   objecttolerance="10"
   gridtolerance="10"
   guidetolerance="10"
   inkscape:pageopacity="0"
   inkscape:pageshadow="2"
   inkscape:window-width="1920"
   inkscape:window-height="1017"
   id="namedview61"
   showgrid="false"
   inkscape:zoom="1.1125147"
   inkscape:cx="111.87999"
   inkscape:cy="234.70527"
   inkscape:window-x="-8"
   inkscape:window-y="-8"
   inkscape:window-maximized="1"
   inkscape:current-layer="text54" />
<style
   type="text/css"
   id="style2">
	.st0{fill:#999999;stroke:#000000;stroke-miterlimit:10;}
	.st1{fill:#F2F2F2;stroke:#000000;stroke-miterlimit:10;}
	.st2{fill:#FF0000;stroke:#000000;stroke-miterlimit:10;}
	.st3{fill:#FFE610;stroke:#000000;stroke-miterlimit:10;}
	.st4{fill:#FF4000;stroke:#000000;stroke-miterlimit:10;}
	.st5{fill:#7C411E;stroke:#000000;stroke-miterlimit:10;}
	.st6{fill:#A0642F;stroke:#000000;stroke-miterlimit:10;}
	.st7{fill:#C2000B;stroke:#000000;stroke-miterlimit:10;}
	.st8{font-family:'GillSansMT';}
	.st9{font-size:10px;}
	.st10{font-size:4.5px;}
	.st11{fill:#1A1A1A;}
	.st12{font-family:'Rockwell';}
	.st13{font-size:11px;}
</style>











<path
   class="st2"
   d="M 393.3553,390.30147 H 109.64983 V 267.41742 c 0,-78.34889 63.50385,-142.67746 142.67745,-142.67746 H 393.3553 Z"
   id="path26"
   inkscape:connector-curvature="0"
   style="fill:#ff0000;stroke:#000000;stroke-width:8.24725151;stroke-miterlimit:10" />
<path
   class="st3"
   d="M 403.252,242.67566 H 258.92509 V 62.060843 L 512.94045,19.175133 475.00309,177.52237 c -12.37087,42.88572 -35.46319,65.15329 -71.75109,65.15329 z"
   id="path28"
   inkscape:connector-curvature="0"
   style="fill:#ffe610;stroke:#000000;stroke-width:8.24725151;stroke-miterlimit:10" />
<rect
   x="109.64982"
   y="390.30145"
   class="st4"
   width="86.596146"
   height="188.03734"
   id="rect30"
   style="fill:#ff4000;stroke:#000000;stroke-width:8.24725151;stroke-miterlimit:10" />
<circle
   class="st1"
   cx="202.01904"
   cy="250.92293"
   r="18.143955"
   id="circle32"
   style="fill:#f2f2f2;stroke:#000000;stroke-width:8.24725151;stroke-miterlimit:10" />










<g
   aria-label="ZOO"
   style="font-size:82.47251892px;font-family:GillSansMT;stroke-width:8.24725151"
   id="text54"><path
     d="m 212.46907,403.79108 h 48.48482 l -35.96092,49.16941 h 35.96092 v 7.16802 h -50.7802 l 36.04146,-49.16941 h -33.74608 z"
     style="font-size:82.47251892px;font-family:GillSansMT;stroke-width:8.24725151"
     id="path55" /><path
     d="m 296.31076,403.06622 q 13.04741,0 21.70542,8.25531 8.69827,8.25531 8.69827,20.69867 0,12.44336 -8.77881,20.61813 -8.73855,8.1345 -22.06785,8.1345 -12.72525,0 -21.22217,-8.1345 -8.45666,-8.17477 -8.45666,-20.45705 0,-12.60444 8.5372,-20.85975 8.53719,-8.25531 21.5846,-8.25531 z m 0.32216,7.65126 q -9.66475,0 -15.90657,6.04047 -6.20154,6.04047 -6.20154,15.42333 0,9.10097 6.24181,15.14144 6.24182,6.04047 15.62468,6.04047 9.42313,0 15.70522,-6.16128 6.32235,-6.16128 6.32235,-15.34279 0,-8.93989 -6.32235,-15.02063 -6.28209,-6.12101 -15.4636,-6.12101 z"
     style="font-size:82.47251892px;font-family:GillSansMT;stroke-width:8.24725151"
     id="path57" /><path
     d="m 364.28615,403.06622 q 13.04741,0 21.70542,8.25531 8.69827,8.25531 8.69827,20.69867 0,12.44336 -8.77881,20.61813 -8.73855,8.1345 -22.06784,8.1345 -12.72526,0 -21.22218,-8.1345 -8.45666,-8.17477 -8.45666,-20.45705 0,-12.60444 8.5372,-20.85975 8.53719,-8.25531 21.5846,-8.25531 z m 0.32216,7.65126 q -9.66475,0 -15.90656,6.04047 -6.20155,6.04047 -6.20155,15.42333 0,9.10097 6.24182,15.14144 6.24181,6.04047 15.62467,6.04047 9.42313,0 15.70522,-6.16128 6.32235,-6.16128 6.32235,-15.34279 0,-8.93989 -6.32235,-15.02063 -6.28209,-6.12101 -15.4636,-6.12101 z"
     style="font-size:82.47251892px;font-family:GillSansMT;stroke-width:8.24725151"
     id="path59" /></g>

<g
   aria-label="LAUSANNE"
   style="font-size:37.11263275px;font-family:GillSansMT;stroke-width:8.24725151"
   id="text56"><path
     d="m 211.95601,478.79796 h 3.62428 v 22.0175 h 11.39836 v 3.2981 h -15.02264 z"
     style="font-size:37.11263275px;font-family:GillSansMT;stroke-width:8.24725151"
     id="path38" /><path
     d="m 238.23204,478.65299 h 2.55512 l 11.32588,25.46057 h -3.71489 l -3.37058,-7.50226 h -10.76411 l -3.18937,7.50226 h -3.71489 z m 5.30957,14.7327 -4.07731,-9.16943 -3.78737,9.16943 z"
     style="font-size:37.11263275px;font-family:GillSansMT;stroke-width:8.24725151"
     id="path40" /><path
     d="m 271.82006,478.79796 h 3.6424 v 14.37027 q 0,2.91754 -0.43491,4.4035 -0.41679,1.48595 -1.05104,2.48263 -0.61613,0.97856 -1.5222,1.75778 -3.00815,2.59136 -7.86469,2.59136 -4.94714,0 -7.93717,-2.57324 -0.90607,-0.79734 -1.54032,-1.7759 -0.61613,-0.99668 -1.03292,-2.42827 -0.39867,-1.43159 -0.39867,-4.4941 v -14.33403 h 3.6424 v 14.37027 q 0,3.56992 0.81546,4.96526 0.81547,1.39535 2.48264,2.24706 1.66716,0.83358 3.93234,0.83358 3.22561,0 5.25521,-1.68529 1.06916,-0.90607 1.54032,-2.13832 0.47115,-1.23226 0.47115,-4.22229 z"
     style="font-size:37.11263275px;font-family:GillSansMT;stroke-width:8.24725151"
     id="path42" /><path
     d="m 286.7974,493.49441 -2.75445,-1.66717 q -2.59136,-1.57656 -3.69677,-3.09875 -1.08728,-1.54032 -1.08728,-3.53368 0,-2.99003 2.06584,-4.85653 2.08396,-1.86651 5.40018,-1.86651 3.17124,0 5.81697,1.7759 v 4.11356 q -2.73633,-2.62761 -5.88946,-2.62761 -1.7759,0 -2.91754,0.83359 -1.14165,0.81546 -1.14165,2.10208 0,1.14165 0.83358,2.13833 0.83359,0.99667 2.70009,2.08396 l 2.77258,1.63092 q 4.63908,2.75446 4.63908,7.03111 0,3.04439 -2.04772,4.94714 -2.0296,1.90275 -5.29145,1.90275 -3.75113,0 -6.83177,-2.30142 v -4.60284 q 2.93567,3.71489 6.79552,3.71489 1.70342,0 2.82694,-0.94231 1.14165,-0.96044 1.14165,-2.39203 0,-2.31954 -3.33434,-4.38538 z"
     style="font-size:37.11263275px;font-family:GillSansMT;stroke-width:8.24725151"
     id="path44" /><path
     d="m 305.64366,478.65299 h 2.55512 l 11.32588,25.46057 h -3.71489 l -3.37058,-7.50226 h -10.76411 l -3.18937,7.50226 h -3.71489 z m 5.30957,14.7327 -4.07731,-9.16943 -3.78738,9.16943 z"
     style="font-size:37.11263275px;font-family:GillSansMT;stroke-width:8.24725151"
     id="path46" /><path
     d="m 342.46635,478.79796 h 3.44307 v 25.3156 h -3.11688 l -16.92539,-19.48051 v 19.48051 h -3.40683 v -25.3156 h 2.93567 l 17.07036,19.6436 z"
     style="font-size:37.11263275px;font-family:GillSansMT;stroke-width:8.24725151"
     id="path48" /><path
     d="m 371.4606,478.79796 h 3.44306 v 25.3156 h -3.11688 l -16.92539,-19.48051 v 19.48051 h -3.40682 v -25.3156 h 2.93567 l 17.07036,19.6436 z"
     style="font-size:37.11263275px;font-family:GillSansMT;stroke-width:8.24725151"
     id="path50" /><path
     d="m 380.34007,478.79796 h 14.35215 v 3.22561 h -10.72787 v 7.71971 h 10.36545 v 3.24373 h -10.36545 v 7.86469 h 11.07218 v 3.22561 h -14.69646 z"
     style="font-size:37.11263275px;font-family:GillSansMT;stroke-width:8.24725151"
     id="path52" /></g>

<g
   aria-label="2019"
   transform="scale(0.9871677,1.0129991)"
   style="font-size:89.55562592px;font-family:Rockwell;fill:#000000;stroke-width:8.14142036"
   id="text58"><path
     d="m 254.91712,552.96972 -0.56847,21.73298 h -38.87448 q 0,-6.29688 2.23014,-12.02529 2.27387,-5.72842 6.34061,-10.01379 4.11046,-4.28538 12.5063,-10.40735 5.29113,-3.89182 7.17145,-6.47179 1.88032,-2.6237 1.88032,-6.07824 0,-4.24165 -2.66743,-6.90907 -2.66743,-2.71116 -7.34636,-2.71116 -5.46604,0 -8.00229,3.06098 -2.53624,3.06099 -2.53624,10.05752 0,1.74913 0.0875,3.32335 h -8.08974 q -0.0437,-1.57422 -0.0437,-2.57997 0,-9.8826 4.67893,-15.4361 4.67893,-5.59723 13.7307,-5.59723 9.13922,0 13.99306,4.76639 4.89758,4.76639 4.89758,11.71919 0,5.81587 -3.19217,9.92634 -3.19217,4.11046 -12.20021,10.45107 -8.74566,6.20942 -11.50055,10.10124 -2.71116,3.89182 -3.14844,6.90908 h 22.91365 l 0.34982,-13.81815 z"
     style="font-size:89.55562592px;font-family:Rockwell;fill:#000000;stroke-width:8.14142036"
     id="path29" /><path
     d="m 263.66279,544.31151 q 0,-15.04255 5.64096,-23.21975 5.68468,-8.1772 15.47983,-8.1772 10.14497,0 15.61101,8.4833 5.46604,8.4833 5.46604,22.91365 0,14.95509 -5.64095,23.17601 -5.64096,8.1772 -15.4361,8.1772 -10.23243,0 -15.69848,-8.52702 -5.42231,-8.52703 -5.42231,-22.82619 z m 8.92058,0 q 0,13.03104 3.14844,18.67199 3.14844,5.59723 9.05177,5.59723 5.90332,0 9.05176,-5.64095 3.14844,-5.64096 3.14844,-18.62827 0,-13.20596 -3.19217,-18.75946 -3.19217,-5.5535 -9.00803,-5.5535 -6.55925,0 -9.4016,6.34061 -2.79861,6.29688 -2.79861,17.97235 z"
     style="font-size:89.55562592px;font-family:Rockwell;fill:#000000;stroke-width:8.14142036"
     id="path31" /><path
     d="m 330.3485,567.31261 v -46.04594 h -8.30838 v -7.30263 h 16.61676 v 53.34857 h 7.91483 v 7.39009 h -24.53159 v -7.39009 z"
     style="font-size:89.55562592px;font-family:Rockwell;fill:#000000;stroke-width:8.14142036"
     id="path33" /><path
     d="m 362.31391,556.73035 h 7.39008 q 0.65593,5.20367 3.67318,8.4833 3.01726,3.27962 7.25891,3.27962 5.85959,0 9.09549,-6.07823 3.2359,-6.07824 3.32335,-16.57304 -6.16569,6.73416 -14.25543,6.73416 -7.21518,0 -12.06902,-5.20367 -4.85385,-5.20367 -4.85385,-13.68697 0,-8.57075 4.89758,-14.64899 4.89757,-6.12197 13.42459,-6.12197 9.48905,0 15.17374,7.82737 5.68468,7.78365 5.68468,23.17602 0,14.64899 -5.50977,23.21975 -5.46604,8.52702 -15.87339,8.52702 -8.08974,0 -12.59376,-5.33486 -4.50401,-5.37858 -4.76638,-13.59951 z m 30.30373,-20.0713 q -1.88032,-16.52931 -12.06902,-16.52931 -5.02876,0 -8.00228,3.76063 -2.9298,3.71691 -2.9298,9.13923 0,4.9413 2.57997,8.26465 2.6237,3.32335 7.565,3.32335 6.47179,0 12.85613,-7.95855 z"
     style="font-size:89.55562592px;font-family:Rockwell;fill:#000000;stroke-width:8.14142036"
     id="path35" /></g>

</svg>