<?xml version="1.0" encoding="UTF-8" standalone="no"?>
<!-- Generator: Adobe Illustrator 21.0.0, SVG Export Plug-In . SVG Version: 6.00 Build 0)  -->

<svg
   xmlns:dc="http://purl.org/dc/elements/1.1/"
   xmlns:cc="http://creativecommons.org/ns#"
   xmlns:rdf="http://www.w3.org/1999/02/22-rdf-syntax-ns#"
   xmlns:svg="http://www.w3.org/2000/svg"
   xmlns="http://www.w3.org/2000/svg"
   xmlns:sodipodi="http://sodipodi.sourceforge.net/DTD/sodipodi-0.dtd"
   xmlns:inkscape="http://www.inkscape.org/namespaces/inkscape"
   version="1.1"
   id="Layer_1"
   x="0px"
   y="0px"
   viewBox="0 0 1000 1000"
   xml:space="preserve"
   sodipodi:docname="1b.svg"
   width="1000"
   height="1000"
   inkscape:version="0.92.4 (5da689c313, 2019-01-14)"><metadata
   id="metadata29807"><rdf:RDF><cc:Work
       rdf:about=""><dc:format>image/svg+xml</dc:format><dc:type
         rdf:resource="http://purl.org/dc/dcmitype/StillImage" /><dc:title></dc:title></cc:Work></rdf:RDF></metadata><defs
   id="defs29805" /><sodipodi:namedview
   pagecolor="#ffffff"
   bordercolor="#666666"
   borderopacity="1"
   objecttolerance="10"
   gridtolerance="10"
   guidetolerance="10"
   inkscape:pageopacity="0"
   inkscape:pageshadow="2"
   inkscape:window-width="1920"
   inkscape:window-height="1017"
   id="namedview29803"
   showgrid="false"
   inkscape:zoom="0.08"
   inkscape:cx="-3424.6296"
   inkscape:cy="3467.2857"
   inkscape:window-x="-8"
   inkscape:window-y="-8"
   inkscape:window-maximized="1"
   inkscape:current-layer="Layer_1" />
<style
   type="text/css"
   id="style2">
	.st0{fill:#FFFFFF;}
	.st1{fill:none;stroke:#C9AC83;stroke-width:20;stroke-miterlimit:10;}
	.st2{fill:none;stroke:#000000;stroke-width:15;stroke-miterlimit:10;}
	.st3{fill:#CAAC83;stroke:#000000;stroke-width:25;stroke-miterlimit:10;stroke-opacity:0;}
	.st4{fill:#C9AC83;}
	.st5{fill:#998265;}
	.st6{fill:none;stroke:#C9AC83;stroke-width:150;stroke-miterlimit:10;}
	.st7{fill:#F2F2F2;}
	.st8{fill:none;stroke:#000000;stroke-width:40;stroke-miterlimit:10;}
	.st9{fill:#FFFFFF;stroke:#FFFFFF;stroke-width:40;stroke-miterlimit:10;}
	.st10{fill:none;stroke:#000000;stroke-width:20;stroke-miterlimit:10;}
	.st11{fill:none;stroke:#FFFFFF;stroke-width:20;stroke-miterlimit:10;}
	.st12{fill:#CAAC83;}
	.st13{opacity:0;fill:none;stroke:#000000;stroke-width:25;stroke-miterlimit:10;}
</style>



<rect
   x="-0.094080091"
   y="-8.4834805"
   width="1020.5592"
   height="1020.5592"
   id="rect10"
   style="stroke-width:0.34164411" />
<g
   id="g48"
   transform="matrix(0.34164409,0,0,0.34164409,-1501.3124,-188.01746)">
	<path
   class="st1"
   d="m 6085.7,2221.8 c -8.3,65.9 -11.1,117.4 -10.4,180.8 1.3,113.5 27.1,177.5 27.1,257.6"
   id="path12"
   inkscape:connector-curvature="0"
   style="fill:none;stroke:#c9ac83;stroke-width:20;stroke-miterlimit:10" />
	<path
   class="st2"
   d="M 5830.3,2303.7"
   id="path14"
   inkscape:connector-curvature="0"
   style="fill:none;stroke:#000000;stroke-width:15;stroke-miterlimit:10" />
	<path
   class="st1"
   d="m 5870.9,2278.4 c 168.4,62.1 204.4,124.3 204.4,124.3"
   id="path16"
   inkscape:connector-curvature="0"
   style="fill:none;stroke:#c9ac83;stroke-width:20;stroke-miterlimit:10" />
	<g
   id="g32">
		<path
   class="st3"
   d="m 6140.7,1846.6 c 0,0 -62.5,-54.8 -90.6,-113.4 26.7,84.1 66.4,128.6 66.4,128.6 -96.2,-21.5 -161.6,-118 -142.2,-214.7 l 4.7,-23.4 23.3,5.2 c 96.3,21.5 157.8,121.1 138.4,217.7 z"
   id="path18"
   inkscape:connector-curvature="0"
   style="fill:#caac83;stroke:#000000;stroke-width:25;stroke-miterlimit:10;stroke-opacity:0" />
		<path
   class="st3"
   d="m 6125.3,2009.3 c 0,0 -62.5,-54.8 -90.6,-113.4 26.7,84.1 66.4,128.6 66.4,128.6 -96.2,-21.5 -161.6,-118 -142.2,-214.7 l 4.7,-23.4 23.3,5.2 c 96.3,21.5 157.8,121 138.4,217.7 z"
   id="path20"
   inkscape:connector-curvature="0"
   style="fill:#caac83;stroke:#000000;stroke-width:25;stroke-miterlimit:10;stroke-opacity:0" />
		<path
   class="st3"
   d="m 6111.6,2177 c 0,0 -62.5,-54.8 -90.6,-113.4 26.7,84.1 66.4,128.6 66.4,128.6 -96.2,-21.5 -161.6,-118 -142.2,-214.7 l 4.7,-23.4 23.3,5.2 c 96.3,21.6 157.8,121.1 138.4,217.7 z"
   id="path22"
   inkscape:connector-curvature="0"
   style="fill:#caac83;stroke:#000000;stroke-width:25;stroke-miterlimit:10;stroke-opacity:0" />
		<path
   class="st3"
   d="m 6139.2,1745.8 c 0,0 71.4,-44.9 108.4,-99.2 -39.3,80.4 -86.1,118.6 -86.1,118.6 100.8,-5.6 181.1,-92.1 175.4,-192.8 l -1.4,-24.4 -24.4,1.4 c -100.7,5.5 -177.6,95.6 -171.9,196.4 z"
   id="path24"
   inkscape:connector-curvature="0"
   style="fill:#caac83;stroke:#000000;stroke-width:25;stroke-miterlimit:10;stroke-opacity:0" />
		<path
   class="st3"
   d="m 6129.2,1913.6 c 0,0 71.4,-44.9 108.4,-99.2 -39.3,80.4 -86.1,118.6 -86.1,118.6 100.8,-5.6 181.1,-92.1 175.4,-192.8 l -1.4,-24.4 -24.4,1.4 c -100.7,5.5 -177.6,95.6 -171.9,196.4 z"
   id="path26"
   inkscape:connector-curvature="0"
   style="fill:#caac83;stroke:#000000;stroke-width:25;stroke-miterlimit:10;stroke-opacity:0" />
		<path
   class="st3"
   d="m 6115.5,2072.2 c 0,0 71.4,-44.9 108.4,-99.2 -39.3,80.4 -86.1,118.6 -86.1,118.6 100.8,-5.6 181.1,-92.1 175.4,-192.8 l -1.4,-24.4 -24.4,1.4 c -100.7,5.6 -177.6,95.6 -171.9,196.4 z"
   id="path28"
   inkscape:connector-curvature="0"
   style="fill:#caac83;stroke:#000000;stroke-width:25;stroke-miterlimit:10;stroke-opacity:0" />
		<path
   class="st3"
   d="m 6107.3,2234.8 c 0,0 71.4,-44.9 108.4,-99.2 -39.3,80.4 -86.1,118.6 -86.1,118.6 100.8,-5.6 181.1,-92.1 175.4,-192.8 l -1.4,-24.4 -24.4,1.4 c -100.6,5.6 -177.5,95.7 -171.9,196.4 z"
   id="path30"
   inkscape:connector-curvature="0"
   style="fill:#caac83;stroke:#000000;stroke-width:25;stroke-miterlimit:10;stroke-opacity:0" />
	</g>
	<g
   id="g46">
		<path
   class="st3"
   d="m 5560.2,2078.5 c 0,0 -74.9,36 -139.8,38.9 87.8,8.4 144.3,-10.7 144.3,-10.7 -57.5,80.1 -171.9,102.4 -253.3,46.7 l -19.7,-13.5 13.9,-19.4 c 57.6,-80.1 173.2,-97.7 254.6,-42 z"
   id="path34"
   inkscape:connector-curvature="0"
   style="fill:#caac83;stroke:#000000;stroke-width:25;stroke-miterlimit:10;stroke-opacity:0" />
		<path
   class="st3"
   d="m 5703.8,2156.4 c 0,0 -74.9,36 -139.8,38.9 87.8,8.4 144.3,-10.7 144.3,-10.7 -57.5,80.1 -171.9,102.4 -253.3,46.7 l -19.7,-13.5 13.9,-19.4 c 57.6,-80.1 173.2,-97.7 254.6,-42 z"
   id="path36"
   inkscape:connector-curvature="0"
   style="fill:#caac83;stroke:#000000;stroke-width:25;stroke-miterlimit:10;stroke-opacity:0" />
		<path
   class="st3"
   d="m 5852.8,2234.8 c 0,0 -74.9,36 -139.8,38.9 87.8,8.4 144.3,-10.7 144.3,-10.7 -57.5,80.1 -171.9,102.4 -253.3,46.7 l -19.7,-13.5 13.9,-19.4 c 57.5,-80.1 173.2,-97.7 254.6,-42 z"
   id="path38"
   inkscape:connector-curvature="0"
   style="fill:#caac83;stroke:#000000;stroke-width:25;stroke-miterlimit:10;stroke-opacity:0" />
		<path
   class="st3"
   d="m 5617.2,2115.4 c 0,0 -13.3,-83.3 -48.8,-138.6 58.5,67.6 75.4,125.7 75.4,125.7 34.3,-94.9 -13.7,-202.7 -108.6,-237 l -23,-8.3 -8.3,23 c -34.3,94.8 18.4,200.9 113.3,235.2 z"
   id="path40"
   inkscape:connector-curvature="0"
   style="fill:#caac83;stroke:#000000;stroke-width:25;stroke-miterlimit:10;stroke-opacity:0" />
		<path
   class="st3"
   d="m 5757.8,2190.1 c 0,0 -13.3,-83.3 -48.8,-138.6 58.5,67.6 75.4,125.7 75.4,125.7 34.3,-94.9 -13.7,-202.7 -108.6,-237 l -23,-8.3 -8.3,23 c -34.3,94.9 18.4,201 113.3,235.2 z"
   id="path42"
   inkscape:connector-curvature="0"
   style="fill:#caac83;stroke:#000000;stroke-width:25;stroke-miterlimit:10;stroke-opacity:0" />
		<path
   class="st3"
   d="m 5904.2,2261.4 c 0,0 -13.3,-83.3 -48.8,-138.6 58.5,67.6 75.4,125.7 75.4,125.7 34.3,-94.9 -13.7,-202.7 -108.6,-237 l -23,-8.3 -8.3,23 c -34.3,94.8 18.4,200.9 113.3,235.2 z"
   id="path44"
   inkscape:connector-curvature="0"
   style="fill:#caac83;stroke:#000000;stroke-width:25;stroke-miterlimit:10;stroke-opacity:0" />
	</g>
</g>
<rect
   x="181.42136"
   y="723.04486"
   class="st4"
   width="671.36481"
   height="111.30764"
   id="rect50"
   style="fill:#c9ac83;stroke-width:0.34164411" />
<g
   id="g54"
   transform="matrix(0.34164409,0,0,0.34164409,-1501.3124,-188.01746)">
	<path
   class="st4"
   d="m 6759.4,1694.9 c -23.2,-54.8 -51.8,-107.6 -85.2,-157 -33,-48.9 -71,-94.9 -112.8,-136.7 -41.8,-41.8 -87.8,-79.8 -136.7,-112.8 -49.4,-33.4 -102.2,-62 -157,-85.2 -114,-48.2 -235,-72.6 -359.7,-72.6 -124.7,0 -245.8,24.4 -359.7,72.6 -54.8,23.2 -107.6,51.8 -157,85.2 -48.9,33 -94.9,71 -136.7,112.8 -41.8,41.8 -79.8,87.8 -112.8,136.7 -33.4,49.4 -62,102.2 -85.2,157 -48.2,114 -72.6,235 -72.6,359.7 0,121.4 23.2,239.4 68.9,350.8 22,53.6 49.2,105.4 81,154 23,35.2 48.6,69.1 76.3,101 H 5347 c -11.8,-11 -23.4,-22.4 -34.7,-34.1 -148.2,-154.4 -229.9,-357.4 -229.9,-571.6 0,-455.2 370.4,-825.6 825.6,-825.6 455.2,0 825.6,370.3 825.6,825.6 0,214.1 -81.6,417.1 -229.9,571.6 -11.3,11.7 -22.8,23.1 -34.7,34.1 h 136.9 c 27.7,-31.9 53.3,-65.7 76.3,-101 31.7,-48.6 59,-100.4 81,-154 45.7,-111.4 68.9,-229.4 68.9,-350.8 0,-124.8 -24.5,-245.8 -72.7,-359.7 z"
   id="path52"
   inkscape:connector-curvature="0"
   style="fill:#c9ac83" />
</g>
<polygon
   class="st4"
   points="7211.3,3130.3 7085.2,2967.4 7211.3,2804.5 6674.8,2804.5 6674.8,3130.3 "
   id="polygon56"
   style="fill:#c9ac83"
   transform="matrix(0.34164409,0,0,0.34164409,-1501.3124,-188.01746)" />
<polygon
   class="st5"
   points="6674.8,2992.5 6890.5,2992.5 6674.8,3130.3 "
   id="polygon58"
   style="fill:#998265"
   transform="matrix(0.34164409,0,0,0.34164409,-1501.3124,-188.01746)" />
<polygon
   class="st4"
   points="4611.2,3130.1 4736.6,2967.2 4611.2,2804.3 5144.7,2804.3 5144.7,3130.1 "
   id="polygon60"
   style="fill:#c9ac83"
   transform="matrix(0.34164409,0,0,0.34164409,-1501.3124,-188.01746)" />
<polygon
   class="st5"
   points="5144.8,2992.5 4925.4,2992.5 5144.7,3130.1 "
   id="polygon62"
   style="fill:#998265"
   transform="matrix(0.34164409,0,0,0.34164409,-1501.3124,-188.01746)" />
<path
   class="st6"
   d="M 732.76663,723.04484"
   id="path64"
   inkscape:connector-curvature="0"
   style="fill:none;stroke:#c9ac83;stroke-width:51.24661636;stroke-miterlimit:10" />
<path
   class="st6"
   d="M 301.44096,723.04484"
   id="path66"
   inkscape:connector-curvature="0"
   style="fill:none;stroke:#c9ac83;stroke-width:51.24661636;stroke-miterlimit:10" />
<g
   id="g78"
   transform="matrix(0.34164409,0,0,0.34164409,-1501.3124,-188.01746)">
	<path
   d="m 5479,2915.1 h -56.2 l -50.3,-137.3 h -12.3 v -42.7 h 92.5 v 42.7 h -13.3 l 21,76.8 26.7,-76.8 h -13.2 v -42.7 h 77.7 v 42.7 h -13.2 l 27.1,76.8 21.3,-76.8 H 5574 v -42.7 h 72 v 42.7 h -12.3 l -50.8,137.3 h -55.4 l -24.1,-68.8 z"
   id="path68"
   inkscape:connector-curvature="0" />
	<path
   d="m 5753.7,2913.6 h -93.9 v -42.7 h 13.5 v -93 h -13.7 v -42.7 h 94.2 v 42.7 h -11.4 v 27.2 h 41.3 v -27.2 h -11.5 v -42.7 h 94 v 42.7 h -13.5 v 93 h 13.5 v 42.7 h -94 v -42.7 h 11.5 v -29.2 h -41.3 v 29.2 h 11.4 v 42.7 z"
   id="path70"
   inkscape:connector-curvature="0" />
	<path
   d="m 6060,2913.6 h -170.2 v -42.7 h 13.9 v -93 h -14.1 v -42.7 H 6060 v 57.1 h -46.8 v -14.4 h -40.5 v 27.5 h 35.3 v 36.3 h -35.3 v 29.2 h 40.5 v -14.4 h 46.8 z"
   id="path72"
   inkscape:connector-curvature="0" />
	<path
   d="m 6148.6,2913.6 h -70.7 v -42.7 h 13.6 l 33.5,-93 h -14.4 v -42.7 h 128.3 v 42.7 h -14.4 l 34.1,93 h 13.1 v 42.7 h -93.1 v -39.1 h 15.6 l -6.8,-22.4 h -45.7 l -7.8,22.4 h 14.6 v 39.1 z m 16.8,-133.2 -16.8,49.4 h 31.9 z"
   id="path74"
   inkscape:connector-curvature="0" />
	<path
   d="m 6453.7,2913.6 h -169.8 v -42.7 h 16 v -93 h -16 v -42.7 h 102 v 42.7 H 6369 v 93 h 42.2 v -28.6 h 42.6 v 71.3 z"
   id="path76"
   inkscape:connector-curvature="0" />
</g>
<g
   id="g102"
   transform="matrix(0.34164409,0,0,0.34164409,-1501.3124,-188.01746)">
	<path
   class="st7"
   d="m 5459.2,3130.1 v -32.4 h 11.2 v 7.9 c 5.4,9.7 12.4,14.6 21.1,14.6 4.4,0 8.2,-1.3 11.2,-4 3.1,-2.7 4.6,-6.2 4.6,-10.6 0,-4.2 -1.2,-7.3 -3.7,-9.1 -2.5,-1.9 -7.2,-3.7 -14.1,-5.5 -8,-2.1 -14,-4.2 -17.9,-6.1 -3.9,-1.9 -7,-4.6 -9.3,-8.1 -2.3,-3.5 -3.5,-7.7 -3.5,-12.5 0,-7.5 2.5,-13.5 7.5,-17.9 5,-4.5 11.3,-6.7 18.9,-6.7 7.2,0 13.8,2.3 20,6.9 v -6 h 11 v 27.1 h -11 v -6.2 c -4.6,-6.9 -10.9,-10.3 -19,-10.3 -4.9,0 -8.7,1.1 -11.3,3.4 -2.6,2.2 -3.9,4.9 -3.9,8 0,2.4 0.7,4.5 2,6.3 1.3,1.8 3,3.2 5.1,4 2.1,0.9 6.1,2.1 12.2,3.6 7.9,2 13.7,4 17.2,5.7 3.6,1.8 6.6,4.7 9.2,8.9 2.6,4.1 3.9,8.9 3.9,14.3 0,7.6 -2.7,13.9 -8.1,18.9 -5.4,5 -12.1,7.4 -20,7.4 -8.2,0 -15.5,-2.9 -22.1,-8.8 v 7.4 h -11.2 z"
   id="path80"
   inkscape:connector-curvature="0"
   style="fill:#f2f2f2" />
	<path
   class="st7"
   d="m 5565,3131 -22.9,-79 h -10.8 v -11.2 h 34.3 v 11.2 h -10.8 l 17,58.4 16.3,-58.4 h -10.7 v -11.2 h 41.2 v 11.2 h -10.5 l 16.4,58.4 16.7,-58.4 h -10.7 v -11.2 h 33 V 3052 H 5653 l -22.4,79 h -12.8 l -20.2,-70.6 -20.1,70.6 z"
   id="path82"
   inkscape:connector-curvature="0"
   style="fill:#f2f2f2" />
	<path
   class="st7"
   d="M 5683.9,3118.9 V 3052 h -9.7 v -11.2 h 32.9 v 11.2 h -9.7 v 66.9 h 9.7 v 11.2 h -32.9 v -11.2 z"
   id="path84"
   inkscape:connector-curvature="0"
   style="fill:#f2f2f2" />
	<path
   class="st7"
   d="M 5749.2,3118.9 V 3052 h -18.5 v 22.8 h -11.1 v -33.9 h 72.7 v 33.9 h -11.1 V 3052 h -18.4 v 66.9 h 11.7 v 11.2 h -36.7 v -11.2 z"
   id="path86"
   inkscape:connector-curvature="0"
   style="fill:#f2f2f2" />
	<path
   class="st7"
   d="m 5803.6,3130.1 v -11.2 l 48,-66.9 h -34.8 v 15.7 h -11.1 v -26.9 h 63 v 9.9 l -48.9,68.2 h 39.3 v -17.3 h 11.1 v 28.4 h -66.6 z"
   id="path88"
   inkscape:connector-curvature="0"
   style="fill:#f2f2f2" />
	<path
   class="st7"
   d="M 5896.5,3118.9 V 3052 h -11.6 v -11.2 h 74.6 v 26.9 h -11.1 V 3052 h -38.3 v 26.6 h 33.3 v 11.2 h -33.3 v 29.2 h 38.3 v -16.2 h 11.1 v 27.4 h -74.6 V 3119 h 11.6 z"
   id="path90"
   inkscape:connector-curvature="0"
   style="fill:#f2f2f2" />
	<path
   class="st7"
   d="M 5984.5,3118.9 V 3052 h -12.3 v -11.2 h 36.4 c 7.6,0 13.7,0.6 18.1,1.8 4.5,1.2 8.2,3.7 11.1,7.4 2.9,3.8 4.4,8.5 4.4,14.1 0,11.8 -6.2,19.2 -18.5,22.3 l 15.8,32.5 h 11 v 11.2 h -19.4 l -20.4,-41.7 H 5998 v 30.5 h 11.5 v 11.2 h -37.3 v -11.2 z m 13.5,-41.6 h 10.6 c 5.1,0 8.9,-0.3 11.3,-1 2.4,-0.7 4.4,-2 6,-4 1.5,-2 2.3,-4.8 2.3,-8.2 0,-2.9 -0.8,-5.4 -2.4,-7.4 -1.6,-2 -3.5,-3.3 -5.8,-3.8 -2.3,-0.5 -5.8,-0.8 -10.5,-0.8 H 5998 Z"
   id="path92"
   inkscape:connector-curvature="0"
   style="fill:#f2f2f2" />
	<path
   class="st7"
   d="M 6070.3,3118.9 V 3052 h -11.6 v -11.2 h 36.7 v 11.2 h -11 v 66.9 h 27.5 v -30.3 h 12.6 v 41.5 h -65.8 v -11.2 z"
   id="path94"
   inkscape:connector-curvature="0"
   style="fill:#f2f2f2" />
	<path
   class="st7"
   d="m 6194.9,3098.7 h -32.3 l -6.9,20.2 h 10.9 v 11.2 h -35.3 v -11.2 h 10.9 l 24.5,-68 h -10.8 v -10.1 h 45.9 v 10.1 h -11.2 l 25.1,68 h 10 v 11.2 h -35.2 v -11.2 h 11.2 z m -3.4,-10.4 -11.9,-37.3 h -1.2 l -12.4,37.3 z"
   id="path96"
   inkscape:connector-curvature="0"
   style="fill:#f2f2f2" />
	<path
   class="st7"
   d="M 6244.6,3118.9 V 3052 h -12.8 v -11.2 h 30.6 l 39.4,69.3 V 3052 H 6289 v -11.2 h 36.8 v 11.2 h -13.2 v 79 h -13.9 l -43,-76.1 v 64.1 h 12.8 v 11.2 h -36.8 V 3119 h 12.9 z"
   id="path98"
   inkscape:connector-curvature="0"
   style="fill:#f2f2f2" />
	<path
   class="st7"
   d="M 6346.6,3118.9 V 3052 h -12.2 v -11.2 h 34.7 c 9.6,0 17,0.5 22.2,1.5 5.2,1 10.2,3.2 15.1,6.7 4.9,3.5 8.7,8.2 11.6,14.3 2.9,6.1 4.4,12.9 4.4,20.7 0,8.8 -1.4,16.5 -4.2,23 -2.8,6.5 -6.5,11.4 -11,14.6 -4.5,3.2 -9.9,5.4 -16.2,6.7 -6.3,1.3 -14.2,1.9 -23.9,1.9 h -32.6 V 3119 h 12.1 z m 13.5,0 h 7.1 c 7.9,0 14.2,-0.5 18.8,-1.5 4.6,-1 8.5,-2.7 11.7,-5 3.2,-2.4 5.8,-6 7.7,-10.7 2,-4.8 3,-10.4 3,-16.9 0,-7.7 -1.6,-14.3 -4.9,-19.7 -3.2,-5.4 -7.4,-8.9 -12.4,-10.6 -5.1,-1.6 -12.8,-2.5 -23.3,-2.5 h -7.7 z"
   id="path100"
   inkscape:connector-curvature="0"
   style="fill:#f2f2f2" />
</g>
<line
   class="st1"
   x1="843.28857"
   y1="516.11102"
   x2="987.15472"
   y2="516.11102"
   id="line104"
   style="fill:none;stroke:#c9ac83;stroke-width:6.83288193;stroke-miterlimit:10" />
<line
   class="st1"
   x1="827.33374"
   y1="415.46283"
   x2="964.16223"
   y2="370.98068"
   id="line106"
   style="fill:none;stroke:#c9ac83;stroke-width:6.83288193;stroke-miterlimit:10" />
<line
   class="st1"
   x1="781.04095"
   y1="324.61951"
   x2="897.47321"
   y2="240.06261"
   id="line108"
   style="fill:none;stroke:#c9ac83;stroke-width:6.83288193;stroke-miterlimit:10" />
<line
   class="st1"
   x1="708.98822"
   y1="252.56664"
   x2="793.54517"
   y2="136.13438"
   id="line110"
   style="fill:none;stroke:#c9ac83;stroke-width:6.83288193;stroke-miterlimit:10" />
<line
   class="st1"
   x1="618.17908"
   y1="206.27386"
   x2="662.62708"
   y2="69.445404"
   id="line112"
   style="fill:none;stroke:#c9ac83;stroke-width:6.83288193;stroke-miterlimit:10" />
<line
   class="st1"
   x1="517.4967"
   y1="190.35336"
   x2="517.4967"
   y2="46.452824"
   id="line114"
   style="fill:none;stroke:#c9ac83;stroke-width:6.83288193;stroke-miterlimit:10" />
<line
   class="st1"
   x1="416.81415"
   y1="206.27386"
   x2="372.36621"
   y2="69.445404"
   id="line116"
   style="fill:none;stroke:#c9ac83;stroke-width:6.83288193;stroke-miterlimit:10" />
<line
   class="st1"
   x1="326.00519"
   y1="252.56664"
   x2="241.41409"
   y2="136.13438"
   id="line118"
   style="fill:none;stroke:#c9ac83;stroke-width:6.83288193;stroke-miterlimit:10" />
<line
   class="st1"
   x1="253.9183"
   y1="324.61951"
   x2="137.5201"
   y2="240.06261"
   id="line120"
   style="fill:none;stroke:#c9ac83;stroke-width:6.83288193;stroke-miterlimit:10" />
<line
   class="st1"
   x1="207.65974"
   y1="415.46283"
   x2="70.797066"
   y2="370.98068"
   id="line122"
   style="fill:none;stroke:#c9ac83;stroke-width:6.83288193;stroke-miterlimit:10" />
<line
   class="st1"
   x1="191.70488"
   y1="516.11102"
   x2="47.804321"
   y2="516.11102"
   id="line124"
   style="fill:none;stroke:#c9ac83;stroke-width:6.83288193;stroke-miterlimit:10" />
<line
   class="st1"
   x1="207.65974"
   y1="616.79358"
   x2="70.797066"
   y2="661.2757"
   id="line126"
   style="fill:none;stroke:#c9ac83;stroke-width:6.83288193;stroke-miterlimit:10" />
<path
   class="st1"
   d="M 517.4967,841.90282"
   id="path128"
   inkscape:connector-curvature="0"
   style="fill:none;stroke:#c9ac83;stroke-width:6.83288193;stroke-miterlimit:10" />
<line
   class="st1"
   x1="827.33374"
   y1="616.79358"
   x2="964.16223"
   y2="661.2757"
   id="line130"
   style="fill:none;stroke:#c9ac83;stroke-width:6.83288193;stroke-miterlimit:10" />
<line
   id="XMLID_1_"
   class="st1"
   x1="834.88416"
   y1="592.02441"
   x2="885.10583"
   y2="604.08441"
   style="fill:none;stroke:#c9ac83;stroke-width:6.83288193;stroke-miterlimit:10" />
<line
   id="XMLID_2_"
   class="st1"
   x1="843.25439"
   y1="541.35864"
   x2="894.74005"
   y2="545.39001"
   style="fill:none;stroke:#c9ac83;stroke-width:6.83288193;stroke-miterlimit:10" />
<line
   id="XMLID_3_"
   class="st1"
   x1="843.56183"
   y1="489.97525"
   x2="895.08173"
   y2="485.94394"
   style="fill:none;stroke:#c9ac83;stroke-width:6.83288193;stroke-miterlimit:10" />
<line
   id="XMLID_4_"
   class="st1"
   x1="835.87482"
   y1="439.20709"
   x2="886.09656"
   y2="427.14676"
   style="fill:none;stroke:#c9ac83;stroke-width:6.83288193;stroke-miterlimit:10" />
<line
   id="XMLID_5_"
   class="st1"
   x1="820.33002"
   y1="390.24921"
   x2="868.0578"
   y2="370.50223"
   style="fill:none;stroke:#c9ac83;stroke-width:6.83288193;stroke-miterlimit:10" />
<line
   id="XMLID_6_"
   class="st1"
   x1="797.30328"
   y1="344.33246"
   x2="841.34119"
   y2="317.34256"
   style="fill:none;stroke:#c9ac83;stroke-width:6.83288193;stroke-miterlimit:10" />
<line
   id="XMLID_7_"
   class="st1"
   x1="767.37524"
   y1="302.58347"
   x2="806.66425"
   y2="269.03394"
   style="fill:none;stroke:#c9ac83;stroke-width:6.83288193;stroke-miterlimit:10" />
<line
   id="XMLID_8_"
   class="st1"
   x1="731.29761"
   y1="266.02756"
   x2="764.84711"
   y2="226.77251"
   style="fill:none;stroke:#c9ac83;stroke-width:6.83288193;stroke-miterlimit:10" />
<line
   id="XMLID_9_"
   class="st1"
   x1="689.95856"
   y1="235.5872"
   x2="716.94849"
   y2="191.54913"
   style="fill:none;stroke:#c9ac83;stroke-width:6.83288193;stroke-miterlimit:10" />
<line
   id="XMLID_10_"
   class="st1"
   x1="644.34906"
   y1="211.94536"
   x2="664.13025"
   y2="164.25162"
   style="fill:none;stroke:#c9ac83;stroke-width:6.83288193;stroke-miterlimit:10" />
<line
   id="XMLID_11_"
   class="st1"
   x1="595.59656"
   y1="195.7513"
   x2="607.65649"
   y2="145.5296"
   style="fill:none;stroke:#c9ac83;stroke-width:6.83288193;stroke-miterlimit:10" />
<line
   id="XMLID_12_"
   class="st1"
   x1="544.93066"
   y1="187.41537"
   x2="548.99615"
   y2="135.89517"
   style="fill:none;stroke:#c9ac83;stroke-width:6.83288193;stroke-miterlimit:10" />
<line
   id="XMLID_13_"
   class="st1"
   x1="492.86414"
   y1="187.10777"
   x2="488.69601"
   y2="135.62193"
   style="fill:none;stroke:#c9ac83;stroke-width:6.83288193;stroke-miterlimit:10" />
<line
   id="XMLID_14_"
   class="st1"
   x1="440.55841"
   y1="195.30721"
   x2="428.15677"
   y2="145.15393"
   style="fill:none;stroke:#c9ac83;stroke-width:6.83288193;stroke-miterlimit:10" />
<line
   id="XMLID_15_"
   class="st1"
   x1="393.85574"
   y1="210.30553"
   x2="374.0744"
   y2="162.6118"
   style="fill:none;stroke:#c9ac83;stroke-width:6.83288193;stroke-miterlimit:10" />
<line
   id="XMLID_16_"
   class="st1"
   x1="347.93866"
   y1="233.33215"
   x2="320.94879"
   y2="189.2944"
   style="fill:none;stroke:#c9ac83;stroke-width:6.83288193;stroke-miterlimit:10" />
<line
   id="XMLID_17_"
   class="st1"
   x1="304.68665"
   y1="264.49014"
   x2="270.9321"
   y2="225.44031"
   style="fill:none;stroke:#c9ac83;stroke-width:6.83288193;stroke-miterlimit:10" />
<line
   id="XMLID_18_"
   class="st1"
   x1="267.44745"
   y1="301.86615"
   x2="227.81673"
   y2="268.72665"
   style="fill:none;stroke:#c9ac83;stroke-width:6.83288193;stroke-miterlimit:10" />
<line
   id="XMLID_19_"
   class="st1"
   x1="237.55359"
   y1="343.3075"
   x2="193.24228"
   y2="316.76169"
   style="fill:none;stroke:#c9ac83;stroke-width:6.83288193;stroke-miterlimit:10" />
<line
   id="XMLID_20_"
   class="st1"
   x1="213.70673"
   y1="390.76166"
   x2="165.70575"
   y2="371.69803"
   style="fill:none;stroke:#c9ac83;stroke-width:6.83288193;stroke-miterlimit:10" />
<line
   id="XMLID_21_"
   class="st1"
   x1="198.23033"
   y1="439.75354"
   x2="147.83783"
   y2="428.44528"
   style="fill:none;stroke:#c9ac83;stroke-width:6.83288193;stroke-miterlimit:10" />
<line
   id="XMLID_22_"
   class="st1"
   x1="190.81657"
   y1="489.22357"
   x2="139.29672"
   y2="485.73874"
   style="fill:none;stroke:#c9ac83;stroke-width:6.83288193;stroke-miterlimit:10" />
<line
   id="XMLID_23_"
   class="st1"
   x1="191.15822"
   y1="541.46106"
   x2="139.74078"
   y2="546.24408"
   style="fill:none;stroke:#c9ac83;stroke-width:6.83288193;stroke-miterlimit:10" />
<line
   id="XMLID_24_"
   class="st1"
   x1="199.18684"
   y1="590.86267"
   x2="149.10179"
   y2="603.40112"
   style="fill:none;stroke:#c9ac83;stroke-width:6.83288193;stroke-miterlimit:10" />
<line
   id="XMLID_25_"
   class="st1"
   x1="215.38075"
   y1="640.367"
   x2="167.89223"
   y2="660.69489"
   style="fill:none;stroke:#c9ac83;stroke-width:6.83288193;stroke-miterlimit:10" />
<line
   class="st1"
   x1="818.69025"
   y1="640.74268"
   x2="866.38361"
   y2="660.52405"
   id="line157"
   style="fill:none;stroke:#c9ac83;stroke-width:6.83288193;stroke-miterlimit:10" />
<line
   class="st1"
   x1="807.75757"
   y1="664.04291"
   x2="893.30524"
   y2="707.60248"
   id="line159"
   style="fill:none;stroke:#c9ac83;stroke-width:6.83288193;stroke-miterlimit:10" />
<line
   class="st1"
   x1="839.25708"
   y1="567.08435"
   x2="934.06335"
   y2="582.1167"
   id="line161"
   style="fill:none;stroke:#c9ac83;stroke-width:6.83288193;stroke-miterlimit:10" />
<line
   class="st1"
   x1="839.25708"
   y1="465.17203"
   x2="934.06335"
   y2="450.13968"
   id="line163"
   style="fill:none;stroke:#c9ac83;stroke-width:6.83288193;stroke-miterlimit:10" />
<line
   class="st1"
   x1="807.75757"
   y1="368.2132"
   x2="893.30524"
   y2="324.65353"
   id="line165"
   style="fill:none;stroke:#c9ac83;stroke-width:6.83288193;stroke-miterlimit:10" />
<line
   class="st1"
   x1="747.86725"
   y1="285.77451"
   x2="815.71783"
   y2="217.88977"
   id="line167"
   style="fill:none;stroke:#c9ac83;stroke-width:6.83288193;stroke-miterlimit:10" />
<line
   class="st1"
   x1="665.39441"
   y1="225.85034"
   x2="708.98822"
   y2="140.30251"
   id="line169"
   style="fill:none;stroke:#c9ac83;stroke-width:6.83288193;stroke-miterlimit:10" />
<line
   class="st1"
   x1="568.46991"
   y1="194.35068"
   x2="583.4682"
   y2="99.544441"
   id="line171"
   style="fill:none;stroke:#c9ac83;stroke-width:6.83288193;stroke-miterlimit:10" />
<line
   class="st1"
   x1="466.52332"
   y1="194.35068"
   x2="451.52521"
   y2="99.544441"
   id="line173"
   style="fill:none;stroke:#c9ac83;stroke-width:6.83288193;stroke-miterlimit:10" />
<line
   class="st1"
   x1="369.59903"
   y1="225.85034"
   x2="326.00519"
   y2="140.30251"
   id="line175"
   style="fill:none;stroke:#c9ac83;stroke-width:6.83288193;stroke-miterlimit:10" />
<line
   class="st1"
   x1="287.12604"
   y1="285.77451"
   x2="219.24144"
   y2="217.88977"
   id="line177"
   style="fill:none;stroke:#c9ac83;stroke-width:6.83288193;stroke-miterlimit:10" />
<line
   class="st1"
   x1="227.20168"
   y1="368.2132"
   x2="141.68822"
   y2="324.65353"
   id="line179"
   style="fill:none;stroke:#c9ac83;stroke-width:6.83288193;stroke-miterlimit:10" />
<line
   class="st1"
   x1="195.70219"
   y1="465.17203"
   x2="100.89595"
   y2="450.13968"
   id="line181"
   style="fill:none;stroke:#c9ac83;stroke-width:6.83288193;stroke-miterlimit:10" />
<line
   class="st1"
   x1="195.70219"
   y1="567.08435"
   x2="100.89595"
   y2="582.1167"
   id="line183"
   style="fill:none;stroke:#c9ac83;stroke-width:6.83288193;stroke-miterlimit:10" />
<line
   class="st1"
   x1="227.20168"
   y1="664.04291"
   x2="141.68822"
   y2="707.60248"
   id="line185"
   style="fill:none;stroke:#c9ac83;stroke-width:6.83288193;stroke-miterlimit:10" />
<path
   class="st1"
   d="M 190.85077,516.11101"
   id="path187"
   inkscape:connector-curvature="0"
   style="fill:none;stroke:#c9ac83;stroke-width:6.83288193;stroke-miterlimit:10" />
<path
   class="st1"
   d="M 46.984444,516.11101"
   id="path189"
   inkscape:connector-curvature="0"
   style="fill:none;stroke:#c9ac83;stroke-width:6.83288193;stroke-miterlimit:10" />
<g
   id="g201"
   transform="matrix(0.34164409,0,0,0.34164409,-1501.3124,-188.01746)">
	<path
   d="m 5868,1187.5 5.9,2.8 c -1,4.9 -3.3,8.9 -7,11.8 -3.7,2.9 -8.1,4.5 -13.1,4.8 -6.6,0.4 -12,-1.4 -16.3,-5.4 -4.3,-4 -6.6,-9.2 -7,-15.5 -0.4,-6.9 1.2,-12.6 5,-16.9 3.8,-4.4 8.9,-6.7 15.3,-7.1 5.7,-0.4 10.6,0.9 14.7,3.8 l -0.3,-4 5.6,-0.4 0.9,14 -5.6,0.4 c -1.4,-2.8 -3.5,-4.8 -6.2,-6.2 -2.7,-1.4 -5.5,-2 -8.4,-1.8 -4.3,0.3 -7.8,2.1 -10.4,5.4 -2.6,3.3 -3.7,7.4 -3.4,12.2 0.3,4.9 2.1,8.8 5.2,11.8 3.2,2.9 6.8,4.3 10.9,4 3.4,-0.2 6.4,-1.5 9,-3.8 2.6,-2.6 4.3,-5.8 5.2,-9.9 z"
   id="path191"
   inkscape:connector-curvature="0" />
	<path
   d="m 5888,1199.4 -0.3,-19.8 -6.1,0.1 -0.1,-5.3 10.9,-0.2 0.1,6.8 c 0.6,-1.8 1.5,-3.3 2.7,-4.5 1.2,-1.2 2.4,-2 3.7,-2.4 1.3,-0.4 3.1,-0.6 5.4,-0.7 h 1.6 l 0.1,6 h -1.2 c -3,0 -5.3,0.4 -6.8,1 -1.5,0.6 -2.6,1.8 -3.3,3.4 -0.7,1.6 -1,4.5 -0.9,8.6 l 0.1,6.7 6.6,-0.1 0.1,5.3 -18.7,0.3 -0.1,-5.3 z"
   id="path193"
   inkscape:connector-curvature="0" />
	<path
   d="m 5942.1,1199.7 -0.1,5.3 -10.4,-0.2 0.1,-3.7 c -2.9,2.7 -6.2,4.1 -9.8,4 -2.8,-0.1 -5.1,-1 -7.2,-2.8 -2,-1.8 -3,-4.2 -2.9,-7 0.1,-2.8 1.2,-5.2 3.4,-7 2.2,-1.8 4.8,-2.7 7.9,-2.6 2.8,0.1 5.6,1 8.2,2.7 l 0.1,-3 c 0,-1.5 -0.1,-2.7 -0.4,-3.6 -0.3,-0.8 -0.9,-1.6 -2,-2.3 -1.1,-0.7 -2.5,-1.1 -4.2,-1.1 -3,-0.1 -5.2,1.1 -6.6,3.4 l -5.7,-1.6 c 2.6,-4.7 7.1,-7 13.3,-6.8 2.3,0 4.3,0.4 5.9,1 1.7,0.7 2.9,1.5 3.7,2.5 0.8,1 1.3,2.1 1.6,3.2 0.3,1.1 0.4,2.9 0.3,5.4 l -0.3,14.1 z m -10.9,-6.2 c -2.5,-2.1 -5.1,-3.1 -7.8,-3.2 -1.7,0 -3,0.4 -4.2,1.4 -1.1,0.9 -1.7,2.2 -1.7,3.7 0,1.4 0.4,2.6 1.4,3.6 1,1 2.3,1.5 3.9,1.5 2.9,0.1 5.6,-1.1 8.3,-3.5 z"
   id="path195"
   inkscape:connector-curvature="0" />
	<path
   d="m 5952.1,1200.3 1.1,-19.8 -4.4,-0.2 0.3,-5.3 4.4,0.2 0.2,-4.4 c 0.2,-3.7 1.1,-6.2 2.8,-7.5 1.6,-1.3 3.5,-1.9 5.7,-1.8 4.6,0.3 7.1,2.7 7.6,7.4 l -5.3,0.5 c -0.1,-2 -0.8,-3 -2.1,-3 -0.9,0 -1.5,0.2 -1.9,0.8 -0.4,0.6 -0.6,1.9 -0.7,3.9 l -0.2,4.4 5.2,0.3 -0.3,5.3 -5.2,-0.3 -1.1,19.8 5.8,0.3 -0.3,5.3 -16.2,-0.9 0.3,-5.3 z"
   id="path197"
   inkscape:connector-curvature="0" />
	<path
   d="m 5971.3,1181.6 0.4,-5.3 3.9,0.3 0.4,-4.7 6.4,-5 -0.8,10.1 5.6,0.5 -0.4,5.3 -5.6,-0.5 -1.2,14.7 c -0.2,2.4 -0.2,3.8 0,4.4 0.2,0.6 0.8,0.9 1.9,1 1.1,0.1 2.2,0 3.3,-0.4 l -0.4,5.4 c -1.6,0.4 -3.1,0.6 -4.6,0.4 -1.8,-0.1 -3.3,-0.7 -4.3,-1.6 -1.1,-0.9 -1.7,-2 -1.9,-3.2 -0.2,-1.2 -0.2,-3.3 0.1,-6.3 l 1.2,-15 z"
   id="path199"
   inkscape:connector-curvature="0" />
</g>
<g
   id="g211"
   transform="matrix(0.34164409,0,0,0.34164409,-1501.3124,-188.01746)">
	<path
   d="m 5055.7,2114 -32.7,1.9 0.3,5.5 -5.5,0.3 -1.9,-33.8 13.1,-0.8 0.3,5.4 -7.7,0.4 0.9,16.3 12.9,-0.7 -0.8,-14.1 5.5,-0.3 0.8,14.1 14.3,-0.8 -0.3,-5.6 5.5,-0.3 1,17.7 -5.5,0.3 z"
   id="path203"
   inkscape:connector-curvature="0" />
	<path
   d="m 5018.6,2077 c -1,0 -1.8,-0.3 -2.5,-1 -0.7,-0.7 -1.1,-1.5 -1.1,-2.6 0,-1 0.3,-1.8 1,-2.6 0.7,-0.7 1.5,-1.1 2.5,-1.1 1,0 1.9,0.3 2.6,1 0.7,0.7 1.1,1.5 1.1,2.5 0,1 -0.3,1.9 -1,2.6 -0.8,0.8 -1.6,1.2 -2.6,1.2 z m 35.4,-1.6 -19.8,0.4 0.1,4.7 -5.3,0.1 -0.2,-10.7 25.1,-0.6 -0.1,-4.7 5.3,-0.1 0.3,15.4 -5.3,0.1 z"
   id="path205"
   inkscape:connector-curvature="0" />
	<path
   d="m 5028.7,2047 3.7,0.1 c -2.7,-3.9 -4,-7.4 -4,-10.6 0,-2 0.5,-3.6 1.5,-4.9 1,-1.3 2.1,-2.1 3.5,-2.5 1.4,-0.4 3.3,-0.5 5.9,-0.5 l 14.8,0.2 0.1,-5.1 5.3,0.1 -0.2,11.1 -19.9,-0.3 c -2.3,0 -3.8,0.3 -4.5,1 -0.7,0.7 -1.1,1.5 -1.1,2.5 0,2.6 1.2,5.6 3.7,9 l 16.3,0.3 0.1,-5.2 5.3,0.1 -0.3,16.6 -5.3,-0.1 0.1,-5.3 -19.8,-0.3 -0.1,5.3 -5.3,-0.1 z"
   id="path207"
   inkscape:connector-curvature="0" />
	<path
   d="m 5047.9,1985.6 -1.5,25.5 c 2.8,-0.2 5.2,-1.2 7,-2.9 1.8,-1.7 2.9,-4 3,-6.9 0.2,-4.2 -1.2,-7.6 -4.4,-10.2 l 2.6,-5.1 c 2.6,1.9 4.4,4.2 5.5,7 1.1,2.8 1.6,5.7 1.4,8.7 -0.3,4.6 -2,8.5 -5,11.6 -3.1,3.1 -7.1,4.5 -12,4.2 -4.7,-0.3 -8.4,-2.1 -11.2,-5.5 -2.8,-3.4 -4.1,-7.2 -3.9,-11.3 0.2,-4.1 1.9,-7.7 5.1,-10.8 3.1,-3 7.5,-4.5 13.4,-4.3 z m -4.7,5.9 c -2.2,0.3 -4.2,1.3 -6,3 -1.8,1.7 -2.8,3.9 -3,6.5 -0.1,2.4 0.5,4.5 2,6.3 1.5,1.8 3.4,2.9 5.9,3.5 z"
   id="path209"
   inkscape:connector-curvature="0" />
</g>
<g
   id="g221"
   transform="matrix(0.34164409,0,0,0.34164409,-1501.3124,-188.01746)">
	<path
   d="m 6760.7,1999.3 32.7,-1.6 -0.3,-5.4 5.5,-0.3 0.7,14.5 c 0.2,4 0.1,7 -0.3,9 -0.4,2 -1.5,3.8 -3.4,5.5 -1.9,1.6 -4.1,2.5 -6.8,2.6 -2,0.1 -3.9,-0.3 -5.6,-1.1 -1.7,-0.8 -3,-2.1 -3.9,-3.8 -0.7,2.5 -2,4.4 -3.9,5.8 -1.9,1.4 -4.1,2.2 -6.5,2.3 -2.2,0.1 -4.1,-0.3 -5.9,-1.2 -1.8,-0.9 -3.2,-2.1 -4.3,-3.7 -1,-1.6 -1.8,-3.3 -2.2,-5.2 -0.4,-1.9 -0.7,-4.5 -0.9,-7.8 l -0.7,-14.8 5.5,-0.3 z m 0.4,6.6 0.1,2.5 c 0.2,3.2 0.4,5.6 0.8,7.1 0.4,1.5 1.2,2.7 2.5,3.6 1.2,0.9 2.8,1.3 4.7,1.2 1.7,-0.1 3.1,-0.6 4.2,-1.6 1.1,-1 1.8,-2.2 2.2,-3.6 0.3,-1.5 0.4,-3.5 0.3,-6.1 l -0.2,-3.8 z m 20,-1 0.2,4.1 c 0.2,3.1 0.8,5.3 2,6.5 1.2,1.2 2.8,1.7 4.9,1.6 4.1,-0.2 6.1,-3.1 5.8,-8.7 l -0.2,-4.1 z"
   id="path213"
   inkscape:connector-curvature="0" />
	<path
   d="m 6770.8,2067.2 -0.4,-25.6 c -2.8,0.4 -5.1,1.6 -6.8,3.4 -1.7,1.9 -2.5,4.2 -2.5,7.1 0.1,4.2 1.8,7.4 5.2,9.8 l -2.2,5.3 c -2.7,-1.7 -4.7,-3.9 -6,-6.6 -1.3,-2.7 -2,-5.6 -2.1,-8.6 -0.1,-4.6 1.3,-8.6 4.2,-12 2.8,-3.3 6.7,-5.1 11.7,-5.1 4.7,-0.1 8.5,1.5 11.6,4.6 3.1,3.2 4.6,6.8 4.7,11 0.1,4.1 -1.3,7.8 -4.2,11.2 -3,3.5 -7.3,5.3 -13.2,5.5 z m 4.3,-6.2 c 2.1,-0.5 4,-1.6 5.7,-3.4 1.7,-1.8 2.5,-4.1 2.5,-6.7 0,-2.4 -0.9,-4.4 -2.4,-6.1 -1.5,-1.7 -3.6,-2.7 -6.1,-3 z"
   id="path215"
   inkscape:connector-curvature="0" />
	<path
   d="m 6769,2107.6 1.1,-25.6 c -2.8,0.3 -5.1,1.3 -7,3 -1.8,1.8 -2.8,4.1 -2.9,6.9 -0.2,4.2 1.3,7.5 4.6,10.1 l -2.6,5.2 c -2.6,-1.8 -4.5,-4.1 -5.6,-6.9 -1.2,-2.8 -1.7,-5.7 -1.6,-8.7 0.2,-4.6 1.8,-8.6 4.9,-11.7 3,-3.2 7,-4.6 11.9,-4.4 4.7,0.2 8.4,2 11.3,5.3 2.9,3.3 4.2,7.1 4,11.3 -0.2,4.1 -1.8,7.7 -4.9,10.9 -2.9,3.2 -7.3,4.8 -13.2,4.6 z m 4.6,-5.9 c 2.2,-0.3 4.1,-1.4 5.9,-3.1 1.8,-1.7 2.8,-3.9 2.9,-6.5 0.1,-2.4 -0.6,-4.5 -2.1,-6.2 -1.5,-1.8 -3.5,-2.9 -5.9,-3.4 z"
   id="path217"
   inkscape:connector-curvature="0" />
	<path
   d="m 6759.6,2120.2 19.7,1.7 0.5,-6.1 5.3,0.4 -0.9,10.9 -6.8,-0.6 c 1.7,0.8 3.1,1.9 4.2,3.2 1.1,1.3 1.7,2.6 2,4 0.3,1.4 0.3,3.2 0.1,5.5 l -0.1,1.6 -6,-0.5 0.1,-1.2 c 0.3,-3 0.1,-5.3 -0.3,-6.9 -0.5,-1.5 -1.5,-2.7 -3,-3.6 -1.5,-0.9 -4.4,-1.5 -8.5,-1.8 l -6.7,-0.6 -0.6,6.6 -5.3,-0.4 1.6,-18.7 5.3,0.4 z"
   id="path219"
   inkscape:connector-curvature="0" />
</g>
<circle
   cx="751.28375"
   cy="329.23169"
   r="4.3730445"
   id="circle223"
   style="stroke-width:0.34164411" />
<circle
   cx="284.42706"
   cy="329.23169"
   r="4.3730445"
   id="circle225"
   style="stroke-width:0.34164411" />





























































































































































































































































































































































<circle
   class="st7"
   cx="327.0643"
   cy="867.52594"
   r="8.746089"
   id="circle29798"
   style="fill:#f2f2f2;stroke-width:0.34164411" />
<circle
   class="st7"
   cx="724.02057"
   cy="867.52594"
   r="8.746089"
   id="circle29800"
   style="fill:#f2f2f2;stroke-width:0.34164411" />
</svg>