<?xml version="1.0" encoding="UTF-8" standalone="no"?>
<!-- Generator: Adobe Illustrator 21.0.0, SVG Export Plug-In . SVG Version: 6.00 Build 0)  -->

<svg
   xmlns:dc="http://purl.org/dc/elements/1.1/"
   xmlns:cc="http://creativecommons.org/ns#"
   xmlns:rdf="http://www.w3.org/1999/02/22-rdf-syntax-ns#"
   xmlns:svg="http://www.w3.org/2000/svg"
   xmlns="http://www.w3.org/2000/svg"
   xmlns:sodipodi="http://sodipodi.sourceforge.net/DTD/sodipodi-0.dtd"
   xmlns:inkscape="http://www.inkscape.org/namespaces/inkscape"
   version="1.1"
   id="Layer_1"
   x="0px"
   y="0px"
   viewBox="0 0 1000 1000"
   xml:space="preserve"
   sodipodi:docname="1w.svg"
   width="1000"
   height="1000"
   inkscape:version="0.92.4 (5da689c313, 2019-01-14)"><metadata
   id="metadata29807"><rdf:RDF><cc:Work
       rdf:about=""><dc:format>image/svg+xml</dc:format><dc:type
         rdf:resource="http://purl.org/dc/dcmitype/StillImage" /><dc:title></dc:title></cc:Work></rdf:RDF></metadata><defs
   id="defs29805" /><sodipodi:namedview
   pagecolor="#ffffff"
   bordercolor="#666666"
   borderopacity="1"
   objecttolerance="10"
   gridtolerance="10"
   guidetolerance="10"
   inkscape:pageopacity="0"
   inkscape:pageshadow="2"
   inkscape:window-width="1920"
   inkscape:window-height="1017"
   id="namedview29803"
   showgrid="false"
   inkscape:zoom="0.45254834"
   inkscape:cx="367.24803"
   inkscape:cy="347.47198"
   inkscape:window-x="-8"
   inkscape:window-y="-8"
   inkscape:window-maximized="1"
   inkscape:current-layer="Layer_1" />
<style
   type="text/css"
   id="style2">
	.st0{fill:#FFFFFF;}
	.st1{fill:none;stroke:#C9AC83;stroke-width:20;stroke-miterlimit:10;}
	.st2{fill:none;stroke:#000000;stroke-width:15;stroke-miterlimit:10;}
	.st3{fill:#CAAC83;stroke:#000000;stroke-width:25;stroke-miterlimit:10;stroke-opacity:0;}
	.st4{fill:#C9AC83;}
	.st5{fill:#998265;}
	.st6{fill:none;stroke:#C9AC83;stroke-width:150;stroke-miterlimit:10;}
	.st7{fill:#F2F2F2;}
	.st8{fill:none;stroke:#000000;stroke-width:40;stroke-miterlimit:10;}
	.st9{fill:#FFFFFF;stroke:#FFFFFF;stroke-width:40;stroke-miterlimit:10;}
	.st10{fill:none;stroke:#000000;stroke-width:20;stroke-miterlimit:10;}
	.st11{fill:none;stroke:#FFFFFF;stroke-width:20;stroke-miterlimit:10;}
	.st12{fill:#CAAC83;}
	.st13{opacity:0;fill:none;stroke:#000000;stroke-width:25;stroke-miterlimit:10;}
</style>












































































<rect
   x="-0.35849562"
   y="-4.3832512"
   class="st0"
   width="1009.5107"
   height="1009.5107"
   id="rect227"
   style="fill:#ffffff;stroke-width:0.33794546" />
<g
   id="g265"
   transform="matrix(0.33794545,0,0,0.33794545,-180.31446,-168.28679)">
	<path
   class="st1"
   d="m 2224,2181.3 c -8.3,65.9 -11.1,117.4 -10.4,180.8 1.3,113.5 27.1,177.5 27.1,257.6"
   id="path229"
   inkscape:connector-curvature="0"
   style="fill:none;stroke:#c9ac83;stroke-width:20;stroke-miterlimit:10" />
	<path
   class="st2"
   d="M 1968.7,2263.2"
   id="path231"
   inkscape:connector-curvature="0"
   style="fill:none;stroke:#000000;stroke-width:15;stroke-miterlimit:10" />
	<path
   class="st1"
   d="m 2009.2,2237.9 c 168.4,62.1 204.4,124.3 204.4,124.3"
   id="path233"
   inkscape:connector-curvature="0"
   style="fill:none;stroke:#c9ac83;stroke-width:20;stroke-miterlimit:10" />
	<g
   id="g249">
		<path
   class="st3"
   d="m 2279.1,1806.1 c 0,0 -62.5,-54.8 -90.6,-113.4 26.7,84.1 66.4,128.6 66.4,128.6 -96.2,-21.5 -161.6,-118 -142.2,-214.7 l 4.7,-23.4 23.3,5.2 c 96.2,21.6 157.8,121.1 138.4,217.7 z"
   id="path235"
   inkscape:connector-curvature="0"
   style="fill:#caac83;stroke:#000000;stroke-width:25;stroke-miterlimit:10;stroke-opacity:0" />
		<path
   class="st3"
   d="m 2263.7,1968.8 c 0,0 -62.5,-54.8 -90.6,-113.4 26.7,84.1 66.4,128.6 66.4,128.6 -96.2,-21.5 -161.6,-118 -142.2,-214.7 l 4.7,-23.4 23.3,5.2 c 96.2,21.5 157.8,121 138.4,217.7 z"
   id="path237"
   inkscape:connector-curvature="0"
   style="fill:#caac83;stroke:#000000;stroke-width:25;stroke-miterlimit:10;stroke-opacity:0" />
		<path
   class="st3"
   d="m 2250,2136.5 c 0,0 -62.5,-54.8 -90.6,-113.4 26.7,84.1 66.4,128.6 66.4,128.6 -96.2,-21.5 -161.6,-118 -142.2,-214.7 l 4.7,-23.4 23.3,5.2 c 96.2,21.6 157.8,121.1 138.4,217.7 z"
   id="path239"
   inkscape:connector-curvature="0"
   style="fill:#caac83;stroke:#000000;stroke-width:25;stroke-miterlimit:10;stroke-opacity:0" />
		<path
   class="st3"
   d="m 2277.5,1705.3 c 0,0 71.4,-44.9 108.4,-99.2 -39.3,80.4 -86.1,118.6 -86.1,118.6 100.8,-5.6 181.1,-92.1 175.4,-192.8 l -1.4,-24.4 -24.4,1.4 c -100.6,5.5 -177.5,95.6 -171.9,196.4 z"
   id="path241"
   inkscape:connector-curvature="0"
   style="fill:#caac83;stroke:#000000;stroke-width:25;stroke-miterlimit:10;stroke-opacity:0" />
		<path
   class="st3"
   d="m 2267.5,1873.1 c 0,0 71.4,-44.9 108.4,-99.2 -39.3,80.4 -86.1,118.6 -86.1,118.6 100.8,-5.6 181.1,-92.1 175.4,-192.8 l -1.4,-24.4 -24.4,1.4 c -100.6,5.5 -177.5,95.6 -171.9,196.4 z"
   id="path243"
   inkscape:connector-curvature="0"
   style="fill:#caac83;stroke:#000000;stroke-width:25;stroke-miterlimit:10;stroke-opacity:0" />
		<path
   class="st3"
   d="m 2253.8,2031.7 c 0,0 71.4,-44.9 108.4,-99.2 -39.3,80.4 -86.1,118.6 -86.1,118.6 100.8,-5.6 181.1,-92.1 175.4,-192.8 l -1.4,-24.4 -24.4,1.4 c -100.6,5.6 -177.5,95.7 -171.9,196.4 z"
   id="path245"
   inkscape:connector-curvature="0"
   style="fill:#caac83;stroke:#000000;stroke-width:25;stroke-miterlimit:10;stroke-opacity:0" />
		<path
   class="st3"
   d="m 2245.7,2194.3 c 0,0 71.4,-44.9 108.4,-99.2 -39.3,80.4 -86.1,118.6 -86.1,118.6 100.8,-5.6 181.1,-92.1 175.4,-192.8 l -1.4,-24.4 -24.4,1.4 c -100.7,5.6 -177.6,95.7 -171.9,196.4 z"
   id="path247"
   inkscape:connector-curvature="0"
   style="fill:#caac83;stroke:#000000;stroke-width:25;stroke-miterlimit:10;stroke-opacity:0" />
	</g>
	<g
   id="g263">
		<path
   class="st3"
   d="m 1698.5,2038 c 0,0 -74.9,36 -139.8,38.9 87.8,8.4 144.3,-10.7 144.3,-10.7 -57.5,80.1 -171.9,102.4 -253.3,46.7 l -19.7,-13.5 13.9,-19.4 c 57.6,-80.1 173.3,-97.7 254.6,-42 z"
   id="path251"
   inkscape:connector-curvature="0"
   style="fill:#caac83;stroke:#000000;stroke-width:25;stroke-miterlimit:10;stroke-opacity:0" />
		<path
   class="st3"
   d="m 1842.2,2115.9 c 0,0 -74.9,36 -139.8,38.9 87.8,8.4 144.3,-10.7 144.3,-10.7 -57.5,80.1 -171.9,102.4 -253.3,46.7 l -19.7,-13.5 13.9,-19.4 c 57.5,-80.1 173.2,-97.7 254.6,-42 z"
   id="path253"
   inkscape:connector-curvature="0"
   style="fill:#caac83;stroke:#000000;stroke-width:25;stroke-miterlimit:10;stroke-opacity:0" />
		<path
   class="st3"
   d="m 1991.1,2194.3 c 0,0 -74.9,36 -139.8,38.9 87.8,8.4 144.3,-10.7 144.3,-10.7 -57.5,80.1 -171.9,102.4 -253.3,46.7 l -19.7,-13.5 13.9,-19.4 c 57.6,-80.1 173.3,-97.7 254.6,-42 z"
   id="path255"
   inkscape:connector-curvature="0"
   style="fill:#caac83;stroke:#000000;stroke-width:25;stroke-miterlimit:10;stroke-opacity:0" />
		<path
   class="st3"
   d="m 1755.6,2074.9 c 0,0 -13.3,-83.3 -48.8,-138.6 58.5,67.6 75.4,125.7 75.4,125.7 34.3,-94.9 -13.7,-202.7 -108.6,-237 l -23,-8.3 -8.3,23 c -34.4,94.8 18.4,200.9 113.3,235.2 z"
   id="path257"
   inkscape:connector-curvature="0"
   style="fill:#caac83;stroke:#000000;stroke-width:25;stroke-miterlimit:10;stroke-opacity:0" />
		<path
   class="st3"
   d="m 1896.2,2149.7 c 0,0 -13.3,-83.3 -48.8,-138.6 58.5,67.6 75.4,125.7 75.4,125.7 34.3,-94.9 -13.7,-202.7 -108.6,-237 l -23,-8.3 -8.3,23 c -34.4,94.8 18.4,200.9 113.3,235.2 z"
   id="path259"
   inkscape:connector-curvature="0"
   style="fill:#caac83;stroke:#000000;stroke-width:25;stroke-miterlimit:10;stroke-opacity:0" />
		<path
   class="st3"
   d="m 2042.6,2220.9 c 0,0 -13.3,-83.3 -48.8,-138.6 58.5,67.6 75.4,125.7 75.4,125.7 34.3,-94.9 -13.7,-202.7 -108.6,-237 l -23,-8.3 -8.3,23 c -34.4,94.9 18.4,200.9 113.3,235.2 z"
   id="path261"
   inkscape:connector-curvature="0"
   style="fill:#caac83;stroke:#000000;stroke-width:25;stroke-miterlimit:10;stroke-opacity:0" />
	</g>
</g>
<rect
   x="179.19194"
   y="719.22565"
   class="st4"
   width="664.09662"
   height="110.10262"
   id="rect267"
   style="fill:#c9ac83;stroke-width:0.33794546" />
<g
   id="g271"
   transform="matrix(0.33794545,0,0,0.33794545,-180.31446,-168.28679)">
	<path
   class="st4"
   d="m 2897.8,1654.4 c -23.2,-54.8 -51.8,-107.6 -85.2,-157 -33,-48.9 -71,-94.9 -112.8,-136.7 -41.8,-41.8 -87.8,-79.8 -136.7,-112.8 -49.4,-33.4 -102.2,-62 -157,-85.2 -114,-48.2 -235,-72.6 -359.7,-72.6 -124.7,0 -245.8,24.4 -359.7,72.6 -54.8,23.2 -107.6,51.8 -157,85.2 -48.9,33 -94.9,71 -136.7,112.8 -41.8,41.8 -79.8,87.8 -112.8,136.7 -33.4,49.4 -62,102.2 -85.2,157 -48.2,114 -72.6,235 -72.6,359.7 0,121.4 23.2,239.4 68.9,350.8 22,53.6 49.2,105.4 81,154 23,35.2 48.6,69.1 76.3,101 h 136.9 c -11.8,-11 -23.4,-22.4 -34.7,-34.1 -148.2,-154.4 -229.9,-357.4 -229.9,-571.6 0,-455.2 370.4,-825.6 825.6,-825.6 455.2,0 825.6,370.4 825.6,825.6 0,214.1 -81.6,417.1 -229.9,571.6 -11.3,11.7 -22.8,23.1 -34.7,34.1 h 136.9 c 27.7,-31.9 53.3,-65.7 76.3,-101 31.7,-48.6 59,-100.4 81,-154 45.7,-111.4 68.9,-229.4 68.9,-350.8 -0.2,-124.8 -24.6,-245.8 -72.8,-359.7 z"
   id="path269"
   inkscape:connector-curvature="0"
   style="fill:#c9ac83" />
</g>
<polygon
   class="st4"
   points="2813.1,2764 2813.1,3089.8 3349.7,3089.8 3223.6,2926.9 3349.7,2764 "
   id="polygon273"
   style="fill:#c9ac83"
   transform="matrix(0.33794545,0,0,0.33794545,-180.31446,-168.28679)" />
<polygon
   class="st5"
   points="2813.1,2952 3028.9,2952 2813.1,3089.8 "
   id="polygon275"
   style="fill:#998265"
   transform="matrix(0.33794545,0,0,0.33794545,-180.31446,-168.28679)" />
<polygon
   class="st4"
   points="1283.1,2763.9 1283.1,3089.6 749.5,3089.6 874.9,2926.7 749.5,2763.9 "
   id="polygon277"
   style="fill:#c9ac83"
   transform="matrix(0.33794545,0,0,0.33794545,-180.31446,-168.28679)" />
<polygon
   class="st5"
   points="1283.2,2952 1063.8,2952 1283.1,3089.6 "
   id="polygon279"
   style="fill:#998265"
   transform="matrix(0.33794545,0,0,0.33794545,-180.31446,-168.28679)" />
<path
   class="st6"
   d="M 724.5683,719.22557"
   id="path281"
   inkscape:connector-curvature="0"
   style="fill:none;stroke:#c9ac83;stroke-width:50.69181824;stroke-miterlimit:10" />
<path
   class="st6"
   d="M 297.91215,719.22557"
   id="path283"
   inkscape:connector-curvature="0"
   style="fill:none;stroke:#c9ac83;stroke-width:50.69181824;stroke-miterlimit:10" />
<g
   id="g295"
   transform="matrix(0.33794545,0,0,0.33794545,-180.31446,-168.28679)">
	<path
   class="st0"
   d="m 1617.3,2874.6 h -56.2 l -50.3,-137.3 h -12.3 v -42.7 h 92.5 v 42.7 h -13.3 l 21,76.8 26.7,-76.8 h -13.2 v -42.7 h 77.7 v 42.7 h -13.2 l 27.1,76.8 21.3,-76.8 h -12.8 v -42.7 h 72 v 42.7 H 1772 l -50.8,137.3 h -55.4 l -24.1,-68.8 z"
   id="path285"
   inkscape:connector-curvature="0"
   style="fill:#ffffff" />
	<path
   class="st0"
   d="m 1892.1,2873.1 h -93.9 v -42.7 h 13.5 v -93 H 1798 v -42.7 h 94.2 v 42.7 h -11.4 v 27.2 h 41.3 v -27.2 h -11.5 v -42.7 h 94 v 42.7 H 1991 v 93 h 13.5 v 42.7 h -94 v -42.7 h 11.5 v -29.2 h -41.3 v 29.2 h 11.4 z"
   id="path287"
   inkscape:connector-curvature="0"
   style="fill:#ffffff" />
	<path
   class="st0"
   d="m 2198.4,2873.1 h -170.2 v -42.7 h 13.9 v -93 H 2028 v -42.7 h 170.5 v 57.1 h -46.8 v -14.4 H 2111 v 27.5 h 35.3 v 36.3 H 2111 v 29.2 h 40.5 V 2816 h 46.8 v 57.1 z"
   id="path289"
   inkscape:connector-curvature="0"
   style="fill:#ffffff" />
	<path
   class="st0"
   d="m 2286.9,2873.1 h -70.7 v -42.7 h 13.6 l 33.5,-93 h -14.4 v -42.7 h 128.3 v 42.7 h -14.4 l 34.1,93 h 13.1 v 42.7 h -93.1 V 2834 h 15.6 l -6.8,-22.4 H 2280 l -7.8,22.4 h 14.6 v 39.1 z m 16.8,-133.2 -16.8,49.4 h 31.9 z"
   id="path291"
   inkscape:connector-curvature="0"
   style="fill:#ffffff" />
	<path
   class="st0"
   d="m 2592.1,2873.1 h -169.8 v -42.7 h 16 v -93 h -16 v -42.7 h 102 v 42.7 h -16.9 v 93 h 42.2 v -28.6 h 42.6 v 71.3 z"
   id="path293"
   inkscape:connector-curvature="0"
   style="fill:#ffffff" />
</g>
<g
   id="g319"
   transform="matrix(0.33794545,0,0,0.33794545,-180.31446,-168.28679)">
	<path
   class="st4"
   d="m 1597.6,3089.6 v -32.4 h 11.2 v 7.9 c 5.4,9.7 12.4,14.6 21.1,14.6 4.4,0 8.2,-1.3 11.2,-4 3.1,-2.7 4.6,-6.2 4.6,-10.6 0,-4.2 -1.2,-7.3 -3.7,-9.1 -2.5,-1.9 -7.2,-3.7 -14.1,-5.5 -8,-2.1 -14,-4.2 -17.9,-6.1 -3.9,-1.9 -7,-4.6 -9.3,-8.1 -2.3,-3.5 -3.5,-7.7 -3.5,-12.5 0,-7.5 2.5,-13.5 7.5,-17.9 5,-4.5 11.3,-6.7 18.9,-6.7 7.2,0 13.8,2.3 20,6.9 v -6 h 11 v 27.1 h -11 v -6.2 c -4.6,-6.9 -10.9,-10.3 -19,-10.3 -4.9,0 -8.7,1.1 -11.3,3.4 -2.6,2.2 -3.9,4.9 -3.9,8 0,2.4 0.7,4.5 2,6.3 1.3,1.8 3,3.2 5.1,4 2.1,0.9 6.1,2.1 12.2,3.6 7.9,2 13.7,4 17.2,5.7 3.6,1.8 6.6,4.7 9.2,8.9 2.6,4.1 3.9,8.9 3.9,14.3 0,7.6 -2.7,13.9 -8.1,18.9 -5.4,5 -12.1,7.4 -20,7.4 -8.2,0 -15.5,-2.9 -22.1,-8.8 v 7.4 h -11.2 z"
   id="path297"
   inkscape:connector-curvature="0"
   style="fill:#c9ac83" />
	<path
   class="st4"
   d="m 1703.3,3090.5 -22.9,-79 h -10.8 v -11.2 h 34.3 v 11.2 h -10.8 l 17,58.4 16.3,-58.4 h -10.7 v -11.2 h 41.2 v 11.2 h -10.5 l 16.4,58.4 16.7,-58.4 h -10.7 v -11.2 h 33 v 11.2 h -10.6 l -22.4,79 H 1756 l -20.2,-70.6 -20.1,70.6 z"
   id="path299"
   inkscape:connector-curvature="0"
   style="fill:#c9ac83" />
	<path
   class="st4"
   d="m 1822.3,3078.5 v -66.9 h -9.7 v -11.2 h 32.9 v 11.2 h -9.7 v 66.9 h 9.7 v 11.2 h -32.9 v -11.2 z"
   id="path301"
   inkscape:connector-curvature="0"
   style="fill:#c9ac83" />
	<path
   class="st4"
   d="m 1887.5,3078.5 v -66.9 H 1869 v 22.8 h -11.1 v -33.9 h 72.7 v 33.9 h -11.1 v -22.8 h -18.4 v 66.9 h 11.7 v 11.2 H 1876 v -11.2 z"
   id="path303"
   inkscape:connector-curvature="0"
   style="fill:#c9ac83" />
	<path
   class="st4"
   d="m 1942,3089.6 v -11.2 l 48,-66.9 h -34.8 v 15.7 h -11.1 v -26.9 h 63 v 9.9 l -48.9,68.2 h 39.3 v -17.3 h 11.1 v 28.4 H 1942 Z"
   id="path305"
   inkscape:connector-curvature="0"
   style="fill:#c9ac83" />
	<path
   class="st4"
   d="m 2034.9,3078.5 v -66.9 h -11.6 v -11.2 h 74.6 v 26.9 h -11.1 v -15.7 h -38.3 v 26.6 h 33.3 v 11.2 h -33.3 v 29.2 h 38.3 v -16.2 h 11.1 v 27.4 h -74.6 v -11.2 h 11.6 z"
   id="path307"
   inkscape:connector-curvature="0"
   style="fill:#c9ac83" />
	<path
   class="st4"
   d="m 2122.8,3078.5 v -66.9 h -12.3 v -11.2 h 36.4 c 7.6,0 13.7,0.6 18.1,1.8 4.5,1.2 8.2,3.7 11.1,7.4 2.9,3.8 4.4,8.5 4.4,14.1 0,11.8 -6.2,19.2 -18.5,22.3 l 15.8,32.5 h 11 v 11.2 h -19.4 L 2149,3048 h -12.6 v 30.5 h 11.5 v 11.2 h -37.3 v -11.2 z m 13.6,-41.7 h 10.6 c 5.1,0 8.9,-0.3 11.3,-1 2.4,-0.7 4.4,-2 6,-4 1.5,-2 2.3,-4.8 2.3,-8.2 0,-2.9 -0.8,-5.4 -2.4,-7.4 -1.6,-2 -3.5,-3.3 -5.8,-3.8 -2.3,-0.5 -5.8,-0.8 -10.5,-0.8 h -11.5 z"
   id="path309"
   inkscape:connector-curvature="0"
   style="fill:#c9ac83" />
	<path
   class="st4"
   d="m 2208.7,3078.5 v -66.9 h -11.6 v -11.2 h 36.7 v 11.2 h -11 v 66.9 h 27.5 v -30.3 h 12.6 v 41.5 h -65.8 v -11.2 z"
   id="path311"
   inkscape:connector-curvature="0"
   style="fill:#c9ac83" />
	<path
   class="st4"
   d="m 2333.2,3058.2 h -32.3 l -6.9,20.2 h 10.9 v 11.2 h -35.3 v -11.2 h 10.9 l 24.5,-68 h -10.8 v -10.1 h 45.9 v 10.1 h -11.2 l 25.1,68 h 10 v 11.2 h -35.2 v -11.2 h 11.2 z m -3.4,-10.4 -11.9,-37.3 h -1.2 l -12.4,37.3 z"
   id="path313"
   inkscape:connector-curvature="0"
   style="fill:#c9ac83" />
	<path
   class="st4"
   d="m 2382.9,3078.5 v -66.9 h -12.8 v -11.2 h 30.6 l 39.4,69.3 v -58.2 h -12.7 v -11.2 h 36.8 v 11.2 H 2451 v 79 h -13.9 l -43,-76.1 v 64.1 h 12.8 v 11.2 h -36.8 v -11.2 z"
   id="path315"
   inkscape:connector-curvature="0"
   style="fill:#c9ac83" />
	<path
   class="st4"
   d="m 2484.9,3078.5 v -66.9 h -12.2 v -11.2 h 34.7 c 9.6,0 17,0.5 22.2,1.5 5.2,1 10.2,3.2 15.1,6.7 4.9,3.5 8.7,8.2 11.6,14.3 2.9,6.1 4.4,12.9 4.4,20.7 0,8.8 -1.4,16.5 -4.2,23 -2.8,6.5 -6.5,11.4 -11,14.6 -4.5,3.2 -9.9,5.4 -16.2,6.7 -6.3,1.3 -14.2,1.9 -23.9,1.9 h -32.6 v -11.2 h 12.1 z m 13.6,0 h 7.1 c 7.9,0 14.2,-0.5 18.8,-1.5 4.6,-1 8.5,-2.7 11.7,-5 3.2,-2.4 5.8,-6 7.7,-10.7 2,-4.8 3,-10.4 3,-16.9 0,-7.7 -1.6,-14.3 -4.9,-19.7 -3.2,-5.4 -7.4,-8.9 -12.4,-10.6 -5.1,-1.6 -12.8,-2.5 -23.3,-2.5 h -7.7 z"
   id="path317"
   inkscape:connector-curvature="0"
   style="fill:#c9ac83" />
</g>
<line
   class="st1"
   x1="833.85986"
   y1="514.53198"
   x2="976.20245"
   y2="514.53198"
   id="line321"
   style="fill:none;stroke:#c9ac83;stroke-width:6.75890875;stroke-miterlimit:10" />
<line
   class="st1"
   x1="818.07788"
   y1="414.97342"
   x2="953.45868"
   y2="370.97284"
   id="line323"
   style="fill:none;stroke:#c9ac83;stroke-width:6.75890875;stroke-miterlimit:10" />
<line
   class="st1"
   x1="772.32001"
   y1="325.11356"
   x2="887.45801"
   y2="241.47206"
   id="line325"
   style="fill:none;stroke:#c9ac83;stroke-width:6.75890875;stroke-miterlimit:10" />
<line
   class="st1"
   x1="701.01349"
   y1="253.84074"
   x2="784.68884"
   y2="138.70299"
   id="line327"
   style="fill:none;stroke:#c9ac83;stroke-width:6.75890875;stroke-miterlimit:10" />
<line
   class="st1"
   x1="611.18768"
   y1="208.04913"
   x2="655.18817"
   y2="72.701981"
   id="line329"
   style="fill:none;stroke:#c9ac83;stroke-width:6.75890875;stroke-miterlimit:10" />
<line
   class="st1"
   x1="511.59509"
   y1="192.30101"
   x2="511.59509"
   y2="49.958313"
   id="line331"
   style="fill:none;stroke:#c9ac83;stroke-width:6.75890875;stroke-miterlimit:10" />
<line
   class="st1"
   x1="412.03638"
   y1="208.04913"
   x2="368.03586"
   y2="72.701981"
   id="line333"
   style="fill:none;stroke:#c9ac83;stroke-width:6.75890875;stroke-miterlimit:10" />
<line
   class="st1"
   x1="322.17667"
   y1="253.84074"
   x2="238.53516"
   y2="138.70299"
   id="line335"
   style="fill:none;stroke:#c9ac83;stroke-width:6.75890875;stroke-miterlimit:10" />
<line
   class="st1"
   x1="250.90396"
   y1="325.11356"
   x2="135.73215"
   y2="241.47206"
   id="line337"
   style="fill:none;stroke:#c9ac83;stroke-width:6.75890875;stroke-miterlimit:10" />
<line
   class="st1"
   x1="205.11235"
   y1="414.97342"
   x2="69.765182"
   y2="370.97284"
   id="line339"
   style="fill:none;stroke:#c9ac83;stroke-width:6.75890875;stroke-miterlimit:10" />
<line
   class="st1"
   x1="189.33031"
   y1="514.53198"
   x2="47.021461"
   y2="514.53198"
   id="line341"
   style="fill:none;stroke:#c9ac83;stroke-width:6.75890875;stroke-miterlimit:10" />
<line
   class="st1"
   x1="205.11235"
   y1="614.12463"
   x2="69.765182"
   y2="658.12518"
   id="line343"
   style="fill:none;stroke:#c9ac83;stroke-width:6.75890875;stroke-miterlimit:10" />
<path
   class="st1"
   d="M 511.59508,836.7968"
   id="path345"
   inkscape:connector-curvature="0"
   style="fill:none;stroke:#c9ac83;stroke-width:6.75890875;stroke-miterlimit:10" />
<line
   class="st1"
   x1="818.07788"
   y1="614.12463"
   x2="953.45868"
   y2="658.12518"
   id="line347"
   style="fill:none;stroke:#c9ac83;stroke-width:6.75890875;stroke-miterlimit:10" />
<line
   id="XMLID_50_"
   class="st1"
   x1="825.54639"
   y1="589.6236"
   x2="875.2243"
   y2="601.55298"
   style="fill:none;stroke:#c9ac83;stroke-width:6.75890875;stroke-miterlimit:10" />
<line
   id="XMLID_49_"
   class="st1"
   x1="833.82605"
   y1="539.50635"
   x2="884.75446"
   y2="543.49402"
   style="fill:none;stroke:#c9ac83;stroke-width:6.75890875;stroke-miterlimit:10" />
<line
   id="XMLID_48_"
   class="st1"
   x1="834.164"
   y1="488.6792"
   x2="885.09247"
   y2="484.69153"
   style="fill:none;stroke:#c9ac83;stroke-width:6.75890875;stroke-miterlimit:10" />
<line
   id="XMLID_47_"
   class="st1"
   x1="826.52649"
   y1="438.46063"
   x2="876.23816"
   y2="426.53085"
   style="fill:none;stroke:#c9ac83;stroke-width:6.75890875;stroke-miterlimit:10" />
<line
   id="XMLID_46_"
   class="st1"
   x1="811.14996"
   y1="390.03278"
   x2="858.3609"
   y2="370.49957"
   style="fill:none;stroke:#c9ac83;stroke-width:6.75890875;stroke-miterlimit:10" />
<line
   id="XMLID_45_"
   class="st1"
   x1="788.40625"
   y1="344.6131"
   x2="831.96735"
   y2="317.91541"
   style="fill:none;stroke:#c9ac83;stroke-width:6.75890875;stroke-miterlimit:10" />
<line
   id="XMLID_44_"
   class="st1"
   x1="758.80219"
   y1="303.3161"
   x2="797.66589"
   y2="270.12976"
   style="fill:none;stroke:#c9ac83;stroke-width:6.75890875;stroke-miterlimit:10" />
<line
   id="XMLID_43_"
   class="st1"
   x1="723.11517"
   y1="267.15594"
   x2="756.30139"
   y2="228.32587"
   style="fill:none;stroke:#c9ac83;stroke-width:6.75890875;stroke-miterlimit:10" />
<line
   id="XMLID_42_"
   class="st1"
   x1="682.18994"
   y1="237.04512"
   x2="708.88763"
   y2="193.4838"
   style="fill:none;stroke:#c9ac83;stroke-width:6.75890875;stroke-miterlimit:10" />
<line
   id="XMLID_41_"
   class="st1"
   x1="637.10803"
   y1="213.65921"
   x2="656.6413"
   y2="166.48184"
   style="fill:none;stroke:#c9ac83;stroke-width:6.75890875;stroke-miterlimit:10" />
<line
   id="XMLID_40_"
   class="st1"
   x1="588.88324"
   y1="197.67445"
   x2="600.81262"
   y2="147.96249"
   style="fill:none;stroke:#c9ac83;stroke-width:6.75890875;stroke-miterlimit:10" />
<line
   id="XMLID_39_"
   class="st1"
   x1="538.76593"
   y1="189.39479"
   x2="542.75372"
   y2="138.43236"
   style="fill:none;stroke:#c9ac83;stroke-width:6.75890875;stroke-miterlimit:10" />
<line
   id="XMLID_38_"
   class="st1"
   x1="487.22922"
   y1="189.09052"
   x2="483.10629"
   y2="138.16208"
   style="fill:none;stroke:#c9ac83;stroke-width:6.75890875;stroke-miterlimit:10" />
<line
   id="XMLID_37_"
   class="st1"
   x1="435.52359"
   y1="197.20122"
   x2="423.25613"
   y2="147.59088"
   style="fill:none;stroke:#c9ac83;stroke-width:6.75890875;stroke-miterlimit:10" />
<line
   id="XMLID_36_"
   class="st1"
   x1="389.29263"
   y1="212.03716"
   x2="369.75937"
   y2="164.85977"
   style="fill:none;stroke:#c9ac83;stroke-width:6.75890875;stroke-miterlimit:10" />
<line
   id="XMLID_35_"
   class="st1"
   x1="343.87274"
   y1="234.81447"
   x2="317.17505"
   y2="191.25349"
   style="fill:none;stroke:#c9ac83;stroke-width:6.75890875;stroke-miterlimit:10" />
<line
   id="XMLID_34_"
   class="st1"
   x1="301.12265"
   y1="265.66882"
   x2="267.69983"
   y2="227.00806"
   style="fill:none;stroke:#c9ac83;stroke-width:6.75890875;stroke-miterlimit:10" />
<line
   id="XMLID_33_"
   class="st1"
   x1="264.25281"
   y1="302.60654"
   x2="225.08492"
   y2="269.82581"
   style="fill:none;stroke:#c9ac83;stroke-width:6.75890875;stroke-miterlimit:10" />
<line
   id="XMLID_32_"
   class="st1"
   x1="234.68257"
   y1="343.59924"
   x2="190.88484"
   y2="317.34082"
   style="fill:none;stroke:#c9ac83;stroke-width:6.75890875;stroke-miterlimit:10" />
<line
   id="XMLID_31_"
   class="st1"
   x1="211.09396"
   y1="390.53967"
   x2="163.61264"
   y2="371.68237"
   style="fill:none;stroke:#c9ac83;stroke-width:6.75890875;stroke-miterlimit:10" />
<line
   id="XMLID_30_"
   class="st1"
   x1="195.78505"
   y1="439.00122"
   x2="145.93811"
   y2="427.81537"
   style="fill:none;stroke:#c9ac83;stroke-width:6.75890875;stroke-miterlimit:10" />
<line
   id="XMLID_29_"
   class="st1"
   x1="188.48544"
   y1="487.93564"
   x2="137.52325"
   y2="484.48856"
   style="fill:none;stroke:#c9ac83;stroke-width:6.75890875;stroke-miterlimit:10" />
<line
   id="XMLID_28_"
   class="st1"
   x1="188.82338"
   y1="539.6413"
   x2="137.92879"
   y2="544.33887"
   style="fill:none;stroke:#c9ac83;stroke-width:6.75890875;stroke-miterlimit:10" />
<line
   id="XMLID_27_"
   class="st1"
   x1="196.76509"
   y1="588.47443"
   x2="147.18848"
   y2="600.87708"
   style="fill:none;stroke:#c9ac83;stroke-width:6.75890875;stroke-miterlimit:10" />
<line
   id="XMLID_26_"
   class="st1"
   x1="212.74991"
   y1="637.44287"
   x2="165.80927"
   y2="657.5506"
   style="fill:none;stroke:#c9ac83;stroke-width:6.75890875;stroke-miterlimit:10" />
<line
   class="st1"
   x1="809.52783"
   y1="637.84845"
   x2="856.73871"
   y2="657.38165"
   id="line374"
   style="fill:none;stroke:#c9ac83;stroke-width:6.75890875;stroke-miterlimit:10" />
<line
   class="st1"
   x1="798.74738"
   y1="660.86237"
   x2="883.33502"
   y2="703.95044"
   id="line376"
   style="fill:none;stroke:#c9ac83;stroke-width:6.75890875;stroke-miterlimit:10" />
<line
   class="st1"
   x1="829.90594"
   y1="564.95355"
   x2="923.68573"
   y2="579.82312"
   id="line378"
   style="fill:none;stroke:#c9ac83;stroke-width:6.75890875;stroke-miterlimit:10" />
<line
   class="st1"
   x1="829.90594"
   y1="464.14447"
   x2="923.68573"
   y2="449.27487"
   id="line380"
   style="fill:none;stroke:#c9ac83;stroke-width:6.75890875;stroke-miterlimit:10" />
<line
   class="st1"
   x1="798.74738"
   y1="368.23526"
   x2="883.33502"
   y2="325.14722"
   id="line382"
   style="fill:none;stroke:#c9ac83;stroke-width:6.75890875;stroke-miterlimit:10" />
<line
   class="st1"
   x1="739.47174"
   y1="286.68912"
   x2="806.62146"
   y2="219.53928"
   id="line384"
   style="fill:none;stroke:#c9ac83;stroke-width:6.75890875;stroke-miterlimit:10" />
<line
   class="st1"
   x1="657.89166"
   y1="227.41367"
   x2="701.01349"
   y2="142.79199"
   id="line386"
   style="fill:none;stroke:#c9ac83;stroke-width:6.75890875;stroke-miterlimit:10" />
<line
   class="st1"
   x1="562.0166"
   y1="196.25502"
   x2="576.88617"
   y2="102.47517"
   id="line388"
   style="fill:none;stroke:#c9ac83;stroke-width:6.75890875;stroke-miterlimit:10" />
<line
   class="st1"
   x1="461.20743"
   y1="196.25502"
   x2="446.33783"
   y2="102.47517"
   id="line390"
   style="fill:none;stroke:#c9ac83;stroke-width:6.75890875;stroke-miterlimit:10" />
<line
   class="st1"
   x1="365.29852"
   y1="227.41367"
   x2="322.21045"
   y2="142.79199"
   id="line392"
   style="fill:none;stroke:#c9ac83;stroke-width:6.75890875;stroke-miterlimit:10" />
<line
   class="st1"
   x1="283.71848"
   y1="286.68912"
   x2="216.60249"
   y2="219.53928"
   id="line394"
   style="fill:none;stroke:#c9ac83;stroke-width:6.75890875;stroke-miterlimit:10" />
<line
   class="st1"
   x1="224.47665"
   y1="368.23526"
   x2="139.85509"
   y2="325.14722"
   id="line396"
   style="fill:none;stroke:#c9ac83;stroke-width:6.75890875;stroke-miterlimit:10" />
<line
   class="st1"
   x1="193.31804"
   y1="464.14447"
   x2="99.538177"
   y2="449.27487"
   id="line398"
   style="fill:none;stroke:#c9ac83;stroke-width:6.75890875;stroke-miterlimit:10" />
<line
   class="st1"
   x1="193.31804"
   y1="564.95355"
   x2="99.538177"
   y2="579.82312"
   id="line400"
   style="fill:none;stroke:#c9ac83;stroke-width:6.75890875;stroke-miterlimit:10" />
<line
   class="st1"
   x1="224.47665"
   y1="660.86237"
   x2="139.85509"
   y2="703.95044"
   id="line402"
   style="fill:none;stroke:#c9ac83;stroke-width:6.75890875;stroke-miterlimit:10" />
<path
   class="st1"
   d="M 188.51922,514.532"
   id="path404"
   inkscape:connector-curvature="0"
   style="fill:none;stroke:#c9ac83;stroke-width:6.75890875;stroke-miterlimit:10" />
<path
   class="st1"
   d="M 46.176594,514.532"
   id="path406"
   inkscape:connector-curvature="0"
   style="fill:none;stroke:#c9ac83;stroke-width:6.75890875;stroke-miterlimit:10" />
<g
   id="g418"
   transform="matrix(0.33794545,0,0,0.33794545,-180.31446,-168.28679)">
	<path
   class="st0"
   d="m 2006.3,1147 5.9,2.8 c -1,4.9 -3.3,8.9 -7,11.8 -3.7,2.9 -8.1,4.5 -13.1,4.8 -6.6,0.4 -12,-1.4 -16.3,-5.4 -4.3,-4 -6.6,-9.2 -7,-15.5 -0.4,-6.9 1.2,-12.6 5,-16.9 3.8,-4.4 8.9,-6.7 15.3,-7.1 5.7,-0.4 10.6,0.9 14.7,3.8 l -0.3,-4 5.6,-0.4 0.9,14 -5.6,0.4 c -1.4,-2.8 -3.5,-4.8 -6.2,-6.2 -2.7,-1.4 -5.5,-2 -8.4,-1.8 -4.3,0.3 -7.8,2.1 -10.4,5.4 -2.6,3.3 -3.7,7.4 -3.4,12.2 0.3,4.9 2.1,8.8 5.2,11.8 3.2,2.9 6.8,4.3 10.9,4 3.4,-0.2 6.4,-1.5 9,-3.8 2.6,-2.6 4.4,-5.8 5.2,-9.9 z"
   id="path408"
   inkscape:connector-curvature="0"
   style="fill:#ffffff" />
	<path
   class="st0"
   d="m 2026.4,1158.9 -0.3,-19.8 -6.1,0.1 -0.1,-5.3 10.9,-0.2 0.1,6.8 c 0.6,-1.8 1.5,-3.3 2.7,-4.5 1.2,-1.2 2.4,-2 3.7,-2.4 1.3,-0.4 3.1,-0.6 5.4,-0.7 h 1.6 l 0.1,6 h -1.2 c -3,0 -5.3,0.4 -6.8,1 -1.5,0.6 -2.6,1.8 -3.3,3.4 -0.7,1.6 -1,4.5 -0.9,8.6 l 0.1,6.7 6.6,-0.1 0.1,5.3 -18.7,0.3 -0.1,-5.3 z"
   id="path410"
   inkscape:connector-curvature="0"
   style="fill:#ffffff" />
	<path
   class="st0"
   d="m 2080.4,1159.2 -0.1,5.3 -10.4,-0.2 0.1,-3.7 c -2.9,2.7 -6.2,4.1 -9.8,4 -2.8,-0.1 -5.1,-1 -7.2,-2.8 -2,-1.8 -3,-4.2 -2.9,-7 0.1,-2.8 1.2,-5.2 3.4,-7 2.2,-1.8 4.8,-2.7 7.9,-2.6 2.8,0.1 5.6,1 8.2,2.7 l 0.1,-3 c 0,-1.5 -0.1,-2.7 -0.4,-3.6 -0.3,-0.8 -0.9,-1.6 -2,-2.3 -1.1,-0.7 -2.5,-1.1 -4.2,-1.1 -3,-0.1 -5.2,1.1 -6.6,3.4 l -5.7,-1.6 c 2.6,-4.7 7.1,-7 13.3,-6.8 2.3,0 4.3,0.4 5.9,1 1.7,0.7 2.9,1.5 3.7,2.5 0.8,1 1.3,2.1 1.6,3.2 0.3,1.1 0.4,2.9 0.3,5.4 l -0.3,14.1 z m -10.9,-6.2 c -2.5,-2.1 -5.1,-3.1 -7.8,-3.2 -1.7,0 -3,0.4 -4.2,1.4 -1.1,0.9 -1.7,2.2 -1.7,3.7 0,1.4 0.4,2.6 1.4,3.6 1,1 2.3,1.5 3.9,1.5 2.9,0.1 5.6,-1.1 8.3,-3.5 z"
   id="path412"
   inkscape:connector-curvature="0"
   style="fill:#ffffff" />
	<path
   class="st0"
   d="m 2090.5,1159.8 1.1,-19.8 -4.4,-0.2 0.3,-5.3 4.4,0.2 0.2,-4.4 c 0.2,-3.7 1.1,-6.2 2.8,-7.5 1.6,-1.3 3.5,-1.9 5.7,-1.8 4.6,0.3 7.1,2.7 7.6,7.4 l -5.3,0.5 c -0.1,-2 -0.8,-3 -2.1,-3 -0.9,0 -1.5,0.2 -1.9,0.8 -0.4,0.6 -0.6,1.9 -0.7,3.9 l -0.2,4.4 5.2,0.3 -0.3,5.3 -5.2,-0.3 -1.1,19.8 5.8,0.3 -0.3,5.3 -16.2,-0.9 0.3,-5.3 z"
   id="path414"
   inkscape:connector-curvature="0"
   style="fill:#ffffff" />
	<path
   class="st0"
   d="m 2109.6,1141.2 0.4,-5.3 3.9,0.3 0.4,-4.7 6.4,-5 -0.8,10.1 5.6,0.5 -0.4,5.3 -5.6,-0.5 -1.2,14.7 c -0.2,2.4 -0.2,3.8 0,4.4 0.2,0.6 0.8,0.9 1.9,1 1.1,0.1 2.2,0 3.3,-0.4 l -0.4,5.4 c -1.6,0.4 -3.1,0.6 -4.6,0.4 -1.8,-0.1 -3.3,-0.7 -4.3,-1.6 -1.1,-0.9 -1.7,-2 -1.9,-3.2 -0.2,-1.2 -0.2,-3.3 0.1,-6.3 l 1.2,-15 z"
   id="path416"
   inkscape:connector-curvature="0"
   style="fill:#ffffff" />
</g>
<g
   id="g428"
   transform="matrix(0.33794545,0,0,0.33794545,-180.31446,-168.28679)">
	<path
   class="st0"
   d="m 1194,2073.5 -32.7,1.9 0.3,5.5 -5.5,0.3 -1.9,-33.8 13.1,-0.8 0.3,5.4 -7.7,0.4 0.9,16.3 12.9,-0.7 -0.8,-14.1 5.5,-0.3 0.8,14.1 14.3,-0.8 -0.3,-5.6 5.5,-0.3 1,17.7 -5.5,0.3 z"
   id="path420"
   inkscape:connector-curvature="0"
   style="fill:#ffffff" />
	<path
   class="st0"
   d="m 1157,2036.5 c -1,0 -1.8,-0.3 -2.5,-1 -0.7,-0.7 -1.1,-1.5 -1.1,-2.6 0,-1 0.3,-1.8 1,-2.6 0.7,-0.7 1.5,-1.1 2.5,-1.1 1,0 1.9,0.3 2.6,1 0.7,0.7 1.1,1.5 1.1,2.5 0,1 -0.3,1.9 -1,2.6 -0.8,0.8 -1.6,1.2 -2.6,1.2 z m 35.4,-1.6 -19.8,0.4 0.1,4.7 -5.3,0.1 -0.2,-10.7 25.1,-0.6 -0.1,-4.7 5.3,-0.1 0.3,15.4 -5.3,0.1 z"
   id="path422"
   inkscape:connector-curvature="0"
   style="fill:#ffffff" />
	<path
   class="st0"
   d="m 1167,2006.5 3.7,0.1 c -2.7,-3.9 -4,-7.4 -4,-10.6 0,-2 0.5,-3.6 1.5,-4.9 1,-1.3 2.1,-2.1 3.5,-2.5 1.4,-0.4 3.3,-0.5 5.9,-0.5 l 14.8,0.2 0.1,-5.1 5.3,0.1 -0.2,11.1 -19.9,-0.3 c -2.3,0 -3.8,0.3 -4.5,1 -0.7,0.7 -1.1,1.5 -1.1,2.5 0,2.6 1.2,5.6 3.7,9 l 16.3,0.3 0.1,-5.2 5.3,0.1 -0.3,16.6 -5.3,-0.1 0.1,-5.3 -19.8,-0.3 -0.1,5.3 -5.3,-0.1 z"
   id="path424"
   inkscape:connector-curvature="0"
   style="fill:#ffffff" />
	<path
   class="st0"
   d="m 1186.2,1945.1 -1.5,25.5 c 2.8,-0.2 5.2,-1.2 7,-2.9 1.8,-1.7 2.9,-4 3,-6.9 0.2,-4.2 -1.2,-7.6 -4.4,-10.2 l 2.6,-5.1 c 2.6,1.9 4.4,4.2 5.5,7 1.1,2.8 1.6,5.7 1.4,8.7 -0.3,4.6 -2,8.5 -5,11.6 -3.1,3.1 -7.1,4.5 -12,4.2 -4.7,-0.3 -8.4,-2.1 -11.2,-5.5 -2.8,-3.4 -4.1,-7.2 -3.9,-11.3 0.2,-4.1 1.9,-7.7 5.1,-10.8 3.1,-3 7.6,-4.5 13.4,-4.3 z m -4.7,5.9 c -2.2,0.3 -4.2,1.3 -6,3 -1.8,1.7 -2.8,3.9 -3,6.5 -0.1,2.4 0.5,4.5 2,6.3 1.5,1.8 3.4,2.9 5.9,3.5 z"
   id="path426"
   inkscape:connector-curvature="0"
   style="fill:#ffffff" />
</g>
<g
   id="g438"
   transform="matrix(0.33794545,0,0,0.33794545,-180.31446,-168.28679)">
	<path
   class="st0"
   d="m 2899.1,1958.8 32.7,-1.6 -0.3,-5.4 5.5,-0.3 0.7,14.5 c 0.2,4 0.1,7 -0.3,9 -0.4,2 -1.5,3.8 -3.4,5.5 -1.9,1.6 -4.1,2.5 -6.8,2.6 -2,0.1 -3.9,-0.3 -5.6,-1.1 -1.7,-0.8 -3,-2.1 -3.9,-3.8 -0.7,2.5 -2,4.4 -3.9,5.8 -1.9,1.4 -4.1,2.2 -6.5,2.3 -2.2,0.1 -4.1,-0.3 -5.9,-1.2 -1.8,-0.9 -3.2,-2.1 -4.3,-3.7 -1,-1.6 -1.8,-3.3 -2.2,-5.2 -0.4,-1.9 -0.7,-4.5 -0.9,-7.8 l -0.7,-14.8 5.5,-0.3 z m 0.3,6.6 0.1,2.5 c 0.2,3.2 0.4,5.6 0.8,7.1 0.4,1.5 1.2,2.7 2.5,3.6 1.2,0.9 2.8,1.3 4.7,1.2 1.7,-0.1 3.1,-0.6 4.2,-1.6 1.1,-1 1.8,-2.2 2.2,-3.6 0.3,-1.5 0.4,-3.5 0.3,-6.1 l -0.2,-3.8 z m 20,-0.9 0.2,4.1 c 0.2,3.1 0.8,5.3 2,6.5 1.2,1.2 2.8,1.7 4.9,1.6 4.1,-0.2 6.1,-3.1 5.8,-8.7 l -0.2,-4.1 z"
   id="path430"
   inkscape:connector-curvature="0"
   style="fill:#ffffff" />
	<path
   class="st0"
   d="m 2909.2,2026.7 -0.4,-25.6 c -2.8,0.4 -5.1,1.6 -6.8,3.4 -1.7,1.9 -2.5,4.2 -2.5,7.1 0.1,4.2 1.8,7.4 5.2,9.8 l -2.2,5.3 c -2.7,-1.7 -4.7,-3.9 -6,-6.6 -1.3,-2.7 -2,-5.6 -2.1,-8.6 -0.1,-4.6 1.3,-8.6 4.2,-12 2.8,-3.3 6.7,-5.1 11.7,-5.1 4.7,-0.1 8.5,1.5 11.6,4.6 3.1,3.2 4.6,6.8 4.7,11 0.1,4.1 -1.3,7.8 -4.2,11.2 -3,3.5 -7.4,5.3 -13.2,5.5 z m 4.2,-6.2 c 2.1,-0.5 4,-1.6 5.7,-3.4 1.7,-1.8 2.5,-4.1 2.5,-6.7 0,-2.4 -0.9,-4.4 -2.4,-6.1 -1.5,-1.7 -3.6,-2.7 -6.1,-3 z"
   id="path432"
   inkscape:connector-curvature="0"
   style="fill:#ffffff" />
	<path
   class="st0"
   d="m 2907.4,2067.2 1.1,-25.6 c -2.8,0.3 -5.1,1.3 -7,3 -1.8,1.8 -2.8,4.1 -2.9,6.9 -0.2,4.2 1.3,7.5 4.6,10.1 l -2.6,5.2 c -2.6,-1.8 -4.5,-4.1 -5.6,-6.9 -1.2,-2.8 -1.7,-5.7 -1.6,-8.7 0.2,-4.6 1.8,-8.6 4.9,-11.7 3,-3.2 7,-4.6 11.9,-4.4 4.7,0.2 8.4,2 11.3,5.3 2.9,3.3 4.2,7.1 4,11.3 -0.2,4.1 -1.8,7.7 -4.9,10.9 -2.9,3.1 -7.4,4.7 -13.2,4.6 z m 4.6,-6 c 2.2,-0.3 4.1,-1.4 5.9,-3.1 1.8,-1.7 2.8,-3.9 2.9,-6.5 0.1,-2.4 -0.6,-4.5 -2.1,-6.2 -1.5,-1.8 -3.5,-2.9 -5.9,-3.4 z"
   id="path434"
   inkscape:connector-curvature="0"
   style="fill:#ffffff" />
	<path
   class="st0"
   d="m 2898,2079.7 19.7,1.7 0.5,-6.1 5.3,0.4 -0.9,10.9 -6.8,-0.6 c 1.7,0.8 3.1,1.9 4.2,3.2 1.1,1.3 1.7,2.6 2,4 0.3,1.4 0.3,3.2 0.1,5.5 l -0.1,1.6 -6,-0.5 0.1,-1.2 c 0.3,-3 0.1,-5.3 -0.3,-6.9 -0.5,-1.5 -1.5,-2.7 -3,-3.6 -1.5,-0.9 -4.4,-1.5 -8.5,-1.8 l -6.7,-0.6 -0.6,6.6 -5.3,-0.4 1.6,-18.7 5.3,0.4 z"
   id="path436"
   inkscape:connector-curvature="0"
   style="fill:#ffffff" />
</g>
<circle
   class="st0"
   cx="742.85114"
   cy="329.67581"
   r="4.3257017"
   id="circle440"
   style="fill:#ffffff;stroke-width:0.33794546" />
<circle
   class="st0"
   cx="281.04868"
   cy="329.67581"
   r="4.3257017"
   id="circle442"
   style="fill:#ffffff;stroke-width:0.33794546" />






















































































































































































































































































</svg>