<?xml version="1.0" encoding="UTF-8" standalone="no"?>
<!-- Generator: Adobe Illustrator 21.0.0, SVG Export Plug-In . SVG Version: 6.00 Build 0)  -->

<svg
   xmlns:dc="http://purl.org/dc/elements/1.1/"
   xmlns:cc="http://creativecommons.org/ns#"
   xmlns:rdf="http://www.w3.org/1999/02/22-rdf-syntax-ns#"
   xmlns:svg="http://www.w3.org/2000/svg"
   xmlns="http://www.w3.org/2000/svg"
   xmlns:sodipodi="http://sodipodi.sourceforge.net/DTD/sodipodi-0.dtd"
   xmlns:inkscape="http://www.inkscape.org/namespaces/inkscape"
   version="1.1"
   id="Layer_1"
   x="0px"
   y="0px"
   viewBox="0 0 1000 1000"
   xml:space="preserve"
   sodipodi:docname="2n.svg"
   width="1000"
   height="1000"
   inkscape:version="0.92.4 (5da689c313, 2019-01-14)"><metadata
   id="metadata29807"><rdf:RDF><cc:Work
       rdf:about=""><dc:format>image/svg+xml</dc:format><dc:type
         rdf:resource="http://purl.org/dc/dcmitype/StillImage" /><dc:title></dc:title></cc:Work></rdf:RDF></metadata><defs
   id="defs29805" /><sodipodi:namedview
   pagecolor="#ffffff"
   bordercolor="#666666"
   borderopacity="1"
   objecttolerance="10"
   gridtolerance="10"
   guidetolerance="10"
   inkscape:pageopacity="0"
   inkscape:pageshadow="2"
   inkscape:window-width="1920"
   inkscape:window-height="1017"
   id="namedview29803"
   showgrid="false"
   inkscape:zoom="0.056568542"
   inkscape:cx="11252.097"
   inkscape:cy="4260.6585"
   inkscape:window-x="-8"
   inkscape:window-y="-8"
   inkscape:window-maximized="1"
   inkscape:current-layer="Layer_1" />
<style
   type="text/css"
   id="style2">
	.st0{fill:#FFFFFF;}
	.st1{fill:none;stroke:#C9AC83;stroke-width:20;stroke-miterlimit:10;}
	.st2{fill:none;stroke:#000000;stroke-width:15;stroke-miterlimit:10;}
	.st3{fill:#CAAC83;stroke:#000000;stroke-width:25;stroke-miterlimit:10;stroke-opacity:0;}
	.st4{fill:#C9AC83;}
	.st5{fill:#998265;}
	.st6{fill:none;stroke:#C9AC83;stroke-width:150;stroke-miterlimit:10;}
	.st7{fill:#F2F2F2;}
	.st8{fill:none;stroke:#000000;stroke-width:40;stroke-miterlimit:10;}
	.st9{fill:#FFFFFF;stroke:#FFFFFF;stroke-width:40;stroke-miterlimit:10;}
	.st10{fill:none;stroke:#000000;stroke-width:20;stroke-miterlimit:10;}
	.st11{fill:none;stroke:#FFFFFF;stroke-width:20;stroke-miterlimit:10;}
	.st12{fill:#CAAC83;}
	.st13{opacity:0;fill:none;stroke:#000000;stroke-width:25;stroke-miterlimit:10;}
</style>





























































































































































<rect
   x="-13.325345"
   y="-4.6677547"
   width="1029.5031"
   height="1029.5031"
   id="rect588"
   style="stroke-width:0.30938303" />
<g
   id="g600"
   transform="matrix(0.30938305,0,0,0.30938305,-1319.5096,-1193.8434)">
	<path
   class="st0"
   d="m 5025.1,5669.9 h -112.4 l -100.6,-274.5 h -24.6 V 5310 h 185 v 85.4 h -26.7 l 42.1,153.7 53.4,-153.7 h -26.4 V 5310 h 155.5 v 85.4 H 5144 l 54.1,153.7 42.6,-153.7 H 5215 V 5310 h 143.9 v 85.4 h -24.6 l -101.6,274.5 h -110.8 l -48.2,-137.5 z"
   id="path590"
   inkscape:connector-curvature="0"
   style="fill:#ffffff" />
	<path
   class="st0"
   d="m 5600.9,5666.9 h -187.8 v -85.4 h 26.9 v -186 h -27.5 V 5310 h 188.3 v 85.4 H 5578 v 54.4 h 82.6 v -54.4 h -23.1 V 5310 h 188.1 v 85.4 h -26.9 v 186 h 26.9 v 85.4 h -188.1 v -85.4 h 23.1 v -58.5 H 5578 v 58.5 h 22.8 v 85.5 z"
   id="path592"
   inkscape:connector-curvature="0"
   style="fill:#ffffff" />
	<path
   class="st0"
   d="m 6239.8,5666.9 h -340.4 v -85.4 h 27.7 v -186 h -28.2 V 5310 h 341 v 114.2 h -93.6 v -28.7 h -81.1 v 54.9 h 70.6 v 72.6 h -70.6 v 58.5 h 81.1 v -28.7 h 93.6 v 114.1 z"
   id="path594"
   inkscape:connector-curvature="0"
   style="fill:#ffffff" />
	<path
   class="st0"
   d="m 6443.1,5666.9 h -141.4 v -85.4 h 27.2 l 67,-186 h -28.7 V 5310 h 256.6 v 85.4 H 6595 l 68.2,186 h 26.2 v 85.4 h -186.3 v -78.2 h 31.3 l -13.6,-44.9 h -91.3 l -15.6,44.9 h 29.2 z m 33.6,-266.3 -33.6,98.8 h 63.9 z"
   id="path596"
   inkscape:connector-curvature="0"
   style="fill:#ffffff" />
	<path
   class="st0"
   d="M 7079.7,5666.9 H 6740 v -85.4 h 32.1 v -186 H 6740 V 5310 h 204 v 85.4 h -33.9 v 186 h 84.4 v -57.2 h 85.2 z"
   id="path598"
   inkscape:connector-curvature="0"
   style="fill:#ffffff" />
</g>
<g
   id="g628"
   transform="matrix(0.30938305,0,0,0.30938305,-1319.5096,-1193.8434)">
	<path
   class="st4"
   d="M 4464.2,5961.3 V 5794.1 H 4436 v -27.9 h 173 v 67.2 h -27.6 v -39.3 h -83.5 v 66.1 h 72 v 27.9 h -72 v 73.3 h 28.5 v 27.9 H 4436 v -27.9 h 28.2 z"
   id="path602"
   inkscape:connector-curvature="0"
   style="fill:#c9ac83" />
	<path
   class="st4"
   d="M 4662.1,5961.3 V 5794.1 H 4638 v -27.9 h 81.8 v 27.9 h -24.1 v 167.2 h 24.1 v 27.9 H 4638 v -27.9 z"
   id="path604"
   inkscape:connector-curvature="0"
   style="fill:#c9ac83" />
	<path
   class="st4"
   d="m 4780.4,5961.3 v -167.2 h -31.9 v -27.9 h 76.1 l 97.8,173.4 v -145.5 h -31.6 v -27.9 h 91.6 v 27.9 h -32.9 v 197.4 H 4915 l -107,-190.4 v 160.2 h 31.9 v 27.9 h -91.4 v -27.9 z"
   id="path606"
   inkscape:connector-curvature="0"
   style="fill:#c9ac83" />
	<path
   class="st4"
   d="m 5037.3,5961.3 v -167.2 h -28.9 v -27.9 h 185.4 v 67.2 h -27.6 v -39.3 H 5071 v 66.4 h 82.9 v 27.9 H 5071 v 73 h 95.2 v -40.6 h 27.6 v 68.5 h -185.4 v -27.9 h 28.9 z"
   id="path608"
   inkscape:connector-curvature="0"
   style="fill:#c9ac83" />
	<path
   class="st4"
   d="m 5524.4,5898.4 29,16.2 c -6.5,24.8 -19.7,44 -39.5,57.6 -19.8,13.6 -42.6,20.4 -68.4,20.4 -33.8,0 -60.9,-11 -81.3,-32.9 -20.4,-21.9 -30.6,-49 -30.6,-81.3 0,-35.4 10.3,-63.5 30.8,-84.5 20.5,-21 47.3,-31.4 80.3,-31.4 29.2,0 53.7,8 73.6,23.9 V 5766 h 28.9 v 71.7 h -28.9 c -6.4,-14.5 -16.3,-25.8 -29.7,-33.8 -13.4,-8 -27.4,-11.9 -42.2,-11.9 -22.2,0 -40.5,8 -54.8,24.1 -14.3,16 -21.4,36.3 -21.4,60.8 0,25.1 7.6,45.6 22.9,61.6 15.3,15.9 33.4,23.9 54.4,23.9 17.2,0 32.9,-5.5 47,-16.6 14.1,-11.1 24.1,-26.8 29.9,-47.4 z"
   id="path610"
   inkscape:connector-curvature="0"
   style="fill:#c9ac83" />
	<path
   class="st4"
   d="m 5620.4,5961.3 v -167.2 h -30.6 v -27.9 h 90.6 c 18.9,0 33.9,1.5 45.1,4.4 11.1,2.9 20.3,9.1 27.6,18.6 7.3,9.5 10.9,21.2 10.9,35.4 0,29.5 -15.3,48 -46,55.6 l 39.4,81.1 h 27.3 v 27.9 h -48.3 L 5685.6,5885 H 5654 v 76.3 h 28.5 v 27.9 h -92.8 v -27.9 z m 33.6,-104.2 h 26.3 c 12.7,0 22.1,-0.8 28.1,-2.5 6,-1.7 11,-5 14.8,-10.1 3.8,-5.1 5.8,-11.9 5.8,-20.4 0,-7.3 -2,-13.4 -5.9,-18.4 -3.9,-5 -8.7,-8.2 -14.4,-9.5 -5.7,-1.3 -14.5,-2 -26.2,-2 H 5654 Z"
   id="path612"
   inkscape:connector-curvature="0"
   style="fill:#c9ac83" />
	<path
   class="st4"
   d="m 5956,5910.8 h -80.4 l -17.1,50.5 h 27.1 v 27.9 h -87.9 v -27.9 h 27 l 60.9,-170 h -27 v -25.2 h 114 v 25.2 h -27.9 l 62.4,170 h 25 v 27.9 h -87.4 v -27.9 h 27.7 z m -8.4,-26.2 -29.7,-93.3 h -3 l -30.9,93.3 z"
   id="path614"
   inkscape:connector-curvature="0"
   style="fill:#c9ac83" />
	<path
   class="st4"
   d="M 6080.2,5961.3 V 5794.1 H 6052 v -27.9 h 173 v 67.2 h -27.6 v -39.3 h -83.5 v 66.1 h 72 v 27.9 h -72 v 73.3 h 28.5 v 27.9 H 6052 v -27.9 h 28.2 z"
   id="path616"
   inkscape:connector-curvature="0"
   style="fill:#c9ac83" />
	<path
   class="st4"
   d="m 6321.1,5961.3 v -167.2 h -46 v 56.9 h -27.6 v -84.8 h 180.7 v 84.8 h -27.6 v -56.9 h -45.9 v 167.2 h 29 v 27.9 h -91.2 v -27.9 z"
   id="path618"
   inkscape:connector-curvature="0"
   style="fill:#c9ac83" />
	<path
   class="st4"
   d="m 6581.6,5961.3 v -167.2 h -27.4 v -27.9 h 74.2 c 20.4,0 35.7,1.2 45.9,3.7 10.2,2.5 19.2,8.7 27,18.7 7.8,10 11.7,21.7 11.7,35.2 0,10.4 -2.3,19.7 -7,28.1 -4.7,8.4 -11.5,14.6 -20.4,18.9 12.4,4.3 21.9,11.4 28.6,21.2 6.7,9.9 10,21.2 10,33.9 0,11 -2.5,21 -7.5,30 -5,9 -11.6,15.9 -19.8,20.8 -8.2,4.9 -17.2,8.2 -27,9.9 -9.8,1.7 -23.1,2.6 -40,2.6 h -75.8 v -27.9 z m 33.7,-102.3 h 21 c 16,0 27.2,-2.8 33.6,-8.4 6.4,-5.6 9.5,-13.9 9.5,-24.8 0,-21.2 -14.4,-31.7 -43.1,-31.7 h -21 z m 0,102.3 h 12.7 c 16.6,0 28.7,-0.8 36.4,-2.5 7.7,-1.7 14,-5.6 18.8,-11.7 4.9,-6.1 7.3,-14 7.3,-23.7 0,-8.8 -2.3,-16.1 -7,-22 -4.7,-5.9 -10.6,-9.9 -18,-11.9 -7.3,-2 -17.7,-3 -31,-3 h -19.2 z"
   id="path620"
   inkscape:connector-curvature="0"
   style="fill:#c9ac83" />
	<path
   class="st4"
   d="m 6792.6,5961.3 v -167.2 h -28.9 v -27.9 h 185.4 v 67.2 h -27.6 v -39.3 h -95.2 v 66.4 h 82.9 v 27.9 h -82.9 v 73 h 95.2 v -40.6 h 27.6 v 68.5 h -185.4 v -27.9 h 28.9 z"
   id="path622"
   inkscape:connector-curvature="0"
   style="fill:#c9ac83" />
	<path
   class="st4"
   d="m 7014.2,5961.3 v -167.2 h -28.9 v -27.9 h 185.4 v 67.2 h -27.6 v -39.3 h -95.2 v 66.4 h 82.9 v 27.9 h -82.9 v 73 h 95.2 v -40.6 h 27.6 v 68.5 h -185.4 v -27.9 h 28.9 z"
   id="path624"
   inkscape:connector-curvature="0"
   style="fill:#c9ac83" />
	<path
   class="st4"
   d="m 7232.8,5961.3 v -167.2 h -30.6 v -27.9 h 90.6 c 18.9,0 33.9,1.5 45.1,4.4 11.1,2.9 20.3,9.1 27.6,18.6 7.3,9.5 10.9,21.2 10.9,35.4 0,29.5 -15.3,48 -46,55.6 l 39.4,81.1 h 27.3 v 27.9 h -48.3 L 7298,5885 h -31.4 v 76.3 h 28.5 v 27.9 h -92.8 v -27.9 z m 33.7,-104.2 h 26.3 c 12.7,0 22.1,-0.8 28.1,-2.5 6,-1.7 11,-5 14.8,-10.1 3.8,-5.1 5.8,-11.9 5.8,-20.4 0,-7.3 -2,-13.4 -5.9,-18.4 -3.9,-5 -8.7,-8.2 -14.4,-9.5 -5.7,-1.3 -14.5,-2 -26.2,-2 h -28.5 z"
   id="path626"
   inkscape:connector-curvature="0"
   style="fill:#c9ac83" />
</g>
<g
   id="g656"
   transform="matrix(0.30938305,0,0,0.30938305,-1319.5096,-1193.8434)">
	<path
   class="st4"
   d="M 4464.2,5961.3 V 5794.1 H 4436 v -27.9 h 173 v 67.2 h -27.6 v -39.3 h -83.5 v 66.1 h 72 v 27.9 h -72 v 73.3 h 28.5 v 27.9 H 4436 v -27.9 h 28.2 z"
   id="path630"
   inkscape:connector-curvature="0"
   style="fill:#c9ac83" />
	<path
   class="st4"
   d="M 4662.1,5961.3 V 5794.1 H 4638 v -27.9 h 81.8 v 27.9 h -24.1 v 167.2 h 24.1 v 27.9 H 4638 v -27.9 z"
   id="path632"
   inkscape:connector-curvature="0"
   style="fill:#c9ac83" />
	<path
   class="st4"
   d="m 4780.4,5961.3 v -167.2 h -31.9 v -27.9 h 76.1 l 97.8,173.4 v -145.5 h -31.6 v -27.9 h 91.6 v 27.9 h -32.9 v 197.4 H 4915 l -107,-190.4 v 160.2 h 31.9 v 27.9 h -91.4 v -27.9 z"
   id="path634"
   inkscape:connector-curvature="0"
   style="fill:#c9ac83" />
	<path
   class="st4"
   d="m 5037.3,5961.3 v -167.2 h -28.9 v -27.9 h 185.4 v 67.2 h -27.6 v -39.3 H 5071 v 66.4 h 82.9 v 27.9 H 5071 v 73 h 95.2 v -40.6 h 27.6 v 68.5 h -185.4 v -27.9 h 28.9 z"
   id="path636"
   inkscape:connector-curvature="0"
   style="fill:#c9ac83" />
	<path
   class="st4"
   d="m 5524.4,5898.4 29,16.2 c -6.5,24.8 -19.7,44 -39.5,57.6 -19.8,13.6 -42.6,20.4 -68.4,20.4 -33.8,0 -60.9,-11 -81.3,-32.9 -20.4,-21.9 -30.6,-49 -30.6,-81.3 0,-35.4 10.3,-63.5 30.8,-84.5 20.5,-21 47.3,-31.4 80.3,-31.4 29.2,0 53.7,8 73.6,23.9 V 5766 h 28.9 v 71.7 h -28.9 c -6.4,-14.5 -16.3,-25.8 -29.7,-33.8 -13.4,-8 -27.4,-11.9 -42.2,-11.9 -22.2,0 -40.5,8 -54.8,24.1 -14.3,16 -21.4,36.3 -21.4,60.8 0,25.1 7.6,45.6 22.9,61.6 15.3,15.9 33.4,23.9 54.4,23.9 17.2,0 32.9,-5.5 47,-16.6 14.1,-11.1 24.1,-26.8 29.9,-47.4 z"
   id="path638"
   inkscape:connector-curvature="0"
   style="fill:#c9ac83" />
	<path
   class="st4"
   d="m 5620.4,5961.3 v -167.2 h -30.6 v -27.9 h 90.6 c 18.9,0 33.9,1.5 45.1,4.4 11.1,2.9 20.3,9.1 27.6,18.6 7.3,9.5 10.9,21.2 10.9,35.4 0,29.5 -15.3,48 -46,55.6 l 39.4,81.1 h 27.3 v 27.9 h -48.3 L 5685.6,5885 H 5654 v 76.3 h 28.5 v 27.9 h -92.8 v -27.9 z m 33.6,-104.2 h 26.3 c 12.7,0 22.1,-0.8 28.1,-2.5 6,-1.7 11,-5 14.8,-10.1 3.8,-5.1 5.8,-11.9 5.8,-20.4 0,-7.3 -2,-13.4 -5.9,-18.4 -3.9,-5 -8.7,-8.2 -14.4,-9.5 -5.7,-1.3 -14.5,-2 -26.2,-2 H 5654 Z"
   id="path640"
   inkscape:connector-curvature="0"
   style="fill:#c9ac83" />
	<path
   class="st4"
   d="m 5956,5910.8 h -80.4 l -17.1,50.5 h 27.1 v 27.9 h -87.9 v -27.9 h 27 l 60.9,-170 h -27 v -25.2 h 114 v 25.2 h -27.9 l 62.4,170 h 25 v 27.9 h -87.4 v -27.9 h 27.7 z m -8.4,-26.2 -29.7,-93.3 h -3 l -30.9,93.3 z"
   id="path642"
   inkscape:connector-curvature="0"
   style="fill:#c9ac83" />
	<path
   class="st4"
   d="M 6080.2,5961.3 V 5794.1 H 6052 v -27.9 h 173 v 67.2 h -27.6 v -39.3 h -83.5 v 66.1 h 72 v 27.9 h -72 v 73.3 h 28.5 v 27.9 H 6052 v -27.9 h 28.2 z"
   id="path644"
   inkscape:connector-curvature="0"
   style="fill:#c9ac83" />
	<path
   class="st4"
   d="m 6321.1,5961.3 v -167.2 h -46 v 56.9 h -27.6 v -84.8 h 180.7 v 84.8 h -27.6 v -56.9 h -45.9 v 167.2 h 29 v 27.9 h -91.2 v -27.9 z"
   id="path646"
   inkscape:connector-curvature="0"
   style="fill:#c9ac83" />
	<path
   class="st4"
   d="m 6581.6,5961.3 v -167.2 h -27.4 v -27.9 h 74.2 c 20.4,0 35.7,1.2 45.9,3.7 10.2,2.5 19.2,8.7 27,18.7 7.8,10 11.7,21.7 11.7,35.2 0,10.4 -2.3,19.7 -7,28.1 -4.7,8.4 -11.5,14.6 -20.4,18.9 12.4,4.3 21.9,11.4 28.6,21.2 6.7,9.9 10,21.2 10,33.9 0,11 -2.5,21 -7.5,30 -5,9 -11.6,15.9 -19.8,20.8 -8.2,4.9 -17.2,8.2 -27,9.9 -9.8,1.7 -23.1,2.6 -40,2.6 h -75.8 v -27.9 z m 33.7,-102.3 h 21 c 16,0 27.2,-2.8 33.6,-8.4 6.4,-5.6 9.5,-13.9 9.5,-24.8 0,-21.2 -14.4,-31.7 -43.1,-31.7 h -21 z m 0,102.3 h 12.7 c 16.6,0 28.7,-0.8 36.4,-2.5 7.7,-1.7 14,-5.6 18.8,-11.7 4.9,-6.1 7.3,-14 7.3,-23.7 0,-8.8 -2.3,-16.1 -7,-22 -4.7,-5.9 -10.6,-9.9 -18,-11.9 -7.3,-2 -17.7,-3 -31,-3 h -19.2 z"
   id="path648"
   inkscape:connector-curvature="0"
   style="fill:#c9ac83" />
	<path
   class="st4"
   d="m 6792.6,5961.3 v -167.2 h -28.9 v -27.9 h 185.4 v 67.2 h -27.6 v -39.3 h -95.2 v 66.4 h 82.9 v 27.9 h -82.9 v 73 h 95.2 v -40.6 h 27.6 v 68.5 h -185.4 v -27.9 h 28.9 z"
   id="path650"
   inkscape:connector-curvature="0"
   style="fill:#c9ac83" />
	<path
   class="st4"
   d="m 7014.2,5961.3 v -167.2 h -28.9 v -27.9 h 185.4 v 67.2 h -27.6 v -39.3 h -95.2 v 66.4 h 82.9 v 27.9 h -82.9 v 73 h 95.2 v -40.6 h 27.6 v 68.5 h -185.4 v -27.9 h 28.9 z"
   id="path652"
   inkscape:connector-curvature="0"
   style="fill:#c9ac83" />
	<path
   class="st4"
   d="m 7232.8,5961.3 v -167.2 h -30.6 v -27.9 h 90.6 c 18.9,0 33.9,1.5 45.1,4.4 11.1,2.9 20.3,9.1 27.6,18.6 7.3,9.5 10.9,21.2 10.9,35.4 0,29.5 -15.3,48 -46,55.6 l 39.4,81.1 h 27.3 v 27.9 h -48.3 L 7298,5885 h -31.4 v 76.3 h 28.5 v 27.9 h -92.8 v -27.9 z m 33.7,-104.2 h 26.3 c 12.7,0 22.1,-0.8 28.1,-2.5 6,-1.7 11,-5 14.8,-10.1 3.8,-5.1 5.8,-11.9 5.8,-20.4 0,-7.3 -2,-13.4 -5.9,-18.4 -3.9,-5 -8.7,-8.2 -14.4,-9.5 -5.7,-1.3 -14.5,-2 -26.2,-2 h -28.5 z"
   id="path654"
   inkscape:connector-curvature="0"
   style="fill:#c9ac83" />
</g>
<g
   id="g666"
   transform="matrix(0.30938305,0,0,0.30938305,-1319.5096,-1193.8434)">
	<path
   class="st0"
   d="m 5690.4,6257.1 -2.1,79.7 h -142.5 c 0,-15.4 2.7,-30.1 8.2,-44.1 5.5,-14 13.2,-26.3 23.2,-36.7 10,-10.5 25.2,-23.2 45.8,-38.2 13,-9.5 21.7,-17.4 26.3,-23.8 4.6,-6.4 6.9,-13.8 6.9,-22.2 0,-10.4 -3.3,-18.8 -9.8,-25.4 -6.5,-6.6 -15.5,-9.9 -26.9,-9.9 -13.4,0 -23.1,3.7 -29.3,11.2 -6.2,7.5 -9.3,19.8 -9.3,36.9 0,4.3 0.1,8.3 0.3,12.2 h -29.7 c -0.1,-3.8 -0.2,-7 -0.2,-9.5 0,-24.2 5.7,-43.1 17.2,-56.7 11.4,-13.6 28.2,-20.4 50.3,-20.4 22.3,0 39.5,5.8 51.4,17.5 11.9,11.7 17.9,26 17.9,43 0,14.2 -3.9,26.4 -11.7,36.4 -7.8,10 -22.7,22.8 -44.7,38.3 -21.4,15.2 -35.4,27.5 -42.1,37 -6.7,9.5 -10.6,18 -11.6,25.3 h 84 l 1.3,-50.7 h 27.1 z"
   id="path658"
   inkscape:connector-curvature="0"
   style="fill:#ffffff" />
	<path
   class="st0"
   d="m 5738.6,6225.4 c 0,-36.8 6.9,-65.2 20.8,-85.1 13.8,-20 32.7,-30 56.7,-30 24.8,0 43.9,10.4 57.2,31.1 13.4,20.7 20,48.7 20,84 0,36.6 -6.9,64.9 -20.7,84.9 -13.8,20 -32.7,30.1 -56.6,30.1 -25,0 -44.2,-10.4 -57.5,-31.3 -13.3,-20.8 -19.9,-48.7 -19.9,-83.7 z m 32.7,0 c 0,31.9 3.8,54.7 11.5,68.4 7.7,13.7 18.8,20.6 33.2,20.6 14.4,0 25.5,-6.9 33.2,-20.7 7.7,-13.8 11.5,-36.6 11.5,-68.3 0,-32.3 -3.9,-55.2 -11.7,-68.8 -7.8,-13.6 -18.8,-20.4 -33,-20.4 -16,0 -27.5,7.7 -34.4,23.2 -6.9,15.5 -10.3,37.5 -10.3,66 z"
   id="path660"
   inkscape:connector-curvature="0"
   style="fill:#ffffff" />
	<path
   class="st0"
   d="m 5999.2,6309.7 v -168.8 h -30.5 v -26.8 h 60.9 v 195.6 h 29 v 27.1 h -90 v -27.1 z"
   id="path662"
   inkscape:connector-curvature="0"
   style="fill:#ffffff" />
	<path
   class="st0"
   d="m 6132.5,6270.9 h 27.1 c 1.6,12.7 6.1,23.1 13.5,31.1 7.4,8 16.2,12 26.6,12 14.3,0 25.4,-7.4 33.4,-22.3 7.9,-14.9 12,-35.1 12.2,-60.8 -15.1,16.5 -32.5,24.7 -52.3,24.7 -17.6,0 -32.4,-6.4 -44.3,-19.1 -11.9,-12.7 -17.8,-29.4 -17.8,-50.2 0,-21 6,-38.9 18,-53.8 12,-14.9 28.4,-22.4 49.2,-22.4 23.2,0 41.7,9.5 55.6,28.6 13.9,19.1 20.8,47.4 20.8,85.1 0,35.8 -6.7,64.2 -20.1,85.1 -13.4,20.9 -32.8,31.3 -58.3,31.3 -19.8,0 -35.2,-6.5 -46.2,-19.6 -10.9,-13 -16.7,-29.6 -17.4,-49.7 z m 111.1,-73.6 c -4.6,-40.4 -19.3,-60.6 -44.3,-60.6 -12.3,0 -22,4.6 -29.3,13.7 -7.2,9.1 -10.8,20.3 -10.8,33.6 0,12.1 3.2,22.2 9.5,30.3 6.4,8.1 15.6,12.2 27.7,12.2 15.9,0 31.6,-9.7 47.2,-29.2 z"
   id="path664"
   inkscape:connector-curvature="0"
   style="fill:#ffffff" />
</g>
<g
   id="g704"
   transform="matrix(0.30938305,0,0,0.30938305,-1319.5096,-1193.8434)">
	<path
   class="st1"
   d="m 6057,4769.9 c -8.3,65.9 -11.1,117.4 -10.4,180.8 1.3,113.5 27.1,177.5 27.1,257.6"
   id="path668"
   inkscape:connector-curvature="0"
   style="fill:none;stroke:#c9ac83;stroke-width:20;stroke-miterlimit:10" />
	<path
   class="st2"
   d="M 5801.7,4851.8"
   id="path670"
   inkscape:connector-curvature="0"
   style="fill:none;stroke:#000000;stroke-width:15;stroke-miterlimit:10" />
	<path
   class="st1"
   d="m 5842.3,4826.5 c 168.4,62.1 204.4,124.3 204.4,124.3"
   id="path672"
   inkscape:connector-curvature="0"
   style="fill:none;stroke:#c9ac83;stroke-width:20;stroke-miterlimit:10" />
	<g
   id="g688">
		<path
   class="st3"
   d="m 6112.1,4394.8 c 0,0 -62.5,-54.8 -90.6,-113.4 26.7,84.1 66.4,128.6 66.4,128.6 -96.2,-21.5 -161.6,-118 -142.2,-214.7 l 4.7,-23.4 23.3,5.2 c 96.2,21.5 157.8,121 138.4,217.7 z"
   id="path674"
   inkscape:connector-curvature="0"
   style="fill:#caac83;stroke:#000000;stroke-width:25;stroke-miterlimit:10;stroke-opacity:0" />
		<path
   class="st3"
   d="m 6096.7,4557.4 c 0,0 -62.5,-54.8 -90.6,-113.4 26.7,84.1 66.4,128.6 66.4,128.6 -96.2,-21.5 -161.6,-118 -142.2,-214.7 l 4.7,-23.4 23.3,5.2 c 96.3,21.5 157.8,121 138.4,217.7 z"
   id="path676"
   inkscape:connector-curvature="0"
   style="fill:#caac83;stroke:#000000;stroke-width:25;stroke-miterlimit:10;stroke-opacity:0" />
		<path
   class="st3"
   d="m 6083,4725.2 c 0,0 -62.5,-54.8 -90.6,-113.4 26.7,84.1 66.4,128.6 66.4,128.6 -96.2,-21.5 -161.6,-118 -142.2,-214.7 l 4.7,-23.4 23.3,5.2 c 96.2,21.5 157.8,121 138.4,217.7 z"
   id="path678"
   inkscape:connector-curvature="0"
   style="fill:#caac83;stroke:#000000;stroke-width:25;stroke-miterlimit:10;stroke-opacity:0" />
		<path
   class="st3"
   d="m 6110.6,4293.9 c 0,0 71.4,-44.9 108.4,-99.2 -39.3,80.4 -86.1,118.6 -86.1,118.6 100.8,-5.6 181.1,-92.1 175.4,-192.8 l -1.4,-24.4 -24.4,1.4 c -100.7,5.6 -177.6,95.6 -171.9,196.4 z"
   id="path680"
   inkscape:connector-curvature="0"
   style="fill:#caac83;stroke:#000000;stroke-width:25;stroke-miterlimit:10;stroke-opacity:0" />
		<path
   class="st3"
   d="m 6100.6,4461.7 c 0,0 71.4,-44.9 108.4,-99.2 -39.3,80.4 -86.1,118.6 -86.1,118.6 100.8,-5.6 181.1,-92.1 175.4,-192.8 l -1.4,-24.4 -24.4,1.4 c -100.7,5.5 -177.6,95.6 -171.9,196.4 z"
   id="path682"
   inkscape:connector-curvature="0"
   style="fill:#caac83;stroke:#000000;stroke-width:25;stroke-miterlimit:10;stroke-opacity:0" />
		<path
   class="st3"
   d="m 6086.9,4620.3 c 0,0 71.4,-44.9 108.4,-99.2 -39.3,80.4 -86.1,118.6 -86.1,118.6 100.8,-5.6 181.1,-92.1 175.4,-192.8 l -1.4,-24.4 -24.4,1.4 c -100.7,5.6 -177.6,95.7 -171.9,196.4 z"
   id="path684"
   inkscape:connector-curvature="0"
   style="fill:#caac83;stroke:#000000;stroke-width:25;stroke-miterlimit:10;stroke-opacity:0" />
		<path
   class="st3"
   d="m 6078.7,4782.9 c 0,0 71.4,-44.9 108.4,-99.2 -39.3,80.4 -86.1,118.6 -86.1,118.6 100.8,-5.6 181.1,-92.1 175.4,-192.8 l -1.4,-24.4 -24.4,1.4 c -100.6,5.6 -177.5,95.7 -171.9,196.4 z"
   id="path686"
   inkscape:connector-curvature="0"
   style="fill:#caac83;stroke:#000000;stroke-width:25;stroke-miterlimit:10;stroke-opacity:0" />
	</g>
	<g
   id="g702">
		<path
   class="st3"
   d="m 5531.6,4626.6 c 0,0 -74.9,36 -139.8,38.9 87.8,8.4 144.3,-10.7 144.3,-10.7 -57.5,80.1 -171.9,102.4 -253.3,46.7 l -19.7,-13.5 13.9,-19.4 c 57.6,-80.1 173.2,-97.7 254.6,-42 z"
   id="path690"
   inkscape:connector-curvature="0"
   style="fill:#caac83;stroke:#000000;stroke-width:25;stroke-miterlimit:10;stroke-opacity:0" />
		<path
   class="st3"
   d="m 5675.2,4704.5 c 0,0 -74.9,36 -139.8,38.9 87.8,8.4 144.3,-10.7 144.3,-10.7 -57.5,80.1 -171.9,102.4 -253.3,46.7 l -19.7,-13.5 13.9,-19.4 c 57.6,-80.1 173.2,-97.7 254.6,-42 z"
   id="path692"
   inkscape:connector-curvature="0"
   style="fill:#caac83;stroke:#000000;stroke-width:25;stroke-miterlimit:10;stroke-opacity:0" />
		<path
   class="st3"
   d="m 5824.1,4782.9 c 0,0 -74.9,36 -139.8,38.9 87.8,8.4 144.3,-10.7 144.3,-10.7 -57.5,80.1 -171.9,102.4 -253.3,46.7 l -19.7,-13.5 13.9,-19.4 c 57.6,-80.1 173.3,-97.7 254.6,-42 z"
   id="path694"
   inkscape:connector-curvature="0"
   style="fill:#caac83;stroke:#000000;stroke-width:25;stroke-miterlimit:10;stroke-opacity:0" />
		<path
   class="st3"
   d="m 5588.6,4663.5 c 0,0 -13.3,-83.3 -48.8,-138.6 58.5,67.6 75.4,125.7 75.4,125.7 34.3,-94.9 -13.7,-202.7 -108.6,-237 l -23,-8.3 -8.3,23 c -34.3,94.8 18.4,200.9 113.3,235.2 z"
   id="path696"
   inkscape:connector-curvature="0"
   style="fill:#caac83;stroke:#000000;stroke-width:25;stroke-miterlimit:10;stroke-opacity:0" />
		<path
   class="st3"
   d="m 5729.2,4738.3 c 0,0 -13.3,-83.3 -48.8,-138.6 58.5,67.6 75.4,125.7 75.4,125.7 34.3,-94.9 -13.7,-202.7 -108.6,-237 l -23,-8.3 -8.3,23 c -34.4,94.8 18.4,200.9 113.3,235.2 z"
   id="path698"
   inkscape:connector-curvature="0"
   style="fill:#caac83;stroke:#000000;stroke-width:25;stroke-miterlimit:10;stroke-opacity:0" />
		<path
   class="st3"
   d="m 5875.6,4809.5 c 0,0 -13.3,-83.3 -48.8,-138.6 58.5,67.6 75.4,125.7 75.4,125.7 34.3,-94.9 -13.7,-202.7 -108.6,-237 l -23,-8.3 -8.3,23 c -34.4,94.9 18.4,200.9 113.3,235.2 z"
   id="path700"
   inkscape:connector-curvature="0"
   style="fill:#caac83;stroke:#000000;stroke-width:25;stroke-miterlimit:10;stroke-opacity:0" />
	</g>
</g>
<line
   class="st9"
   x1="30.57608"
   y1="730.82849"
   x2="346.3634"
   y2="730.82849"
   id="line706"
   style="fill:#ffffff;stroke:#ffffff;stroke-width:12.37532234;stroke-miterlimit:10" />
<line
   class="st9"
   x1="663.29535"
   y1="730.82849"
   x2="979.08276"
   y2="730.82849"
   id="line708"
   style="fill:#ffffff;stroke:#ffffff;stroke-width:12.37532234;stroke-miterlimit:10" />
<g
   id="g732"
   transform="matrix(0.30938305,0,0,0.30938305,-1319.5096,-1193.8434)">
	<path
   class="st0"
   d="m 5193.3,6581.8 v -48.6 h 16.7 v 11.8 c 8,14.6 18.5,21.8 31.5,21.8 6.6,0 12.2,-2 16.7,-6.1 4.6,-4 6.8,-9.3 6.8,-15.9 0,-6.3 -1.9,-10.9 -5.6,-13.7 -3.7,-2.8 -10.7,-5.6 -21.1,-8.3 -12,-3.2 -20.9,-6.2 -26.6,-9.1 -5.8,-2.9 -10.4,-6.9 -13.8,-12.2 -3.4,-5.3 -5.1,-11.6 -5.1,-18.8 0,-11.2 3.7,-20.2 11.2,-26.9 7.5,-6.7 16.9,-10.1 28.1,-10.1 10.7,0 20.7,3.5 29.8,10.4 v -8.9 h 16.4 v 40.6 H 5262 v -9.3 c -6.9,-10.3 -16.3,-15.5 -28.4,-15.5 -7.3,0 -12.9,1.7 -16.8,5.1 -3.9,3.4 -5.9,7.4 -5.9,12.1 0,3.6 1,6.8 3,9.5 2,2.7 4.5,4.7 7.6,6 3.1,1.3 9.1,3.1 18.2,5.4 11.8,3.1 20.4,5.9 25.7,8.6 5.3,2.7 9.9,7.1 13.8,13.3 3.8,6.2 5.8,13.4 5.8,21.5 0,11.4 -4,20.9 -12.1,28.3 -8,7.4 -18,11.2 -29.9,11.2 -12.2,0 -23.2,-4.4 -32.9,-13.2 v 11.1 h -16.8 z"
   id="path710"
   inkscape:connector-curvature="0"
   style="fill:#ffffff" />
	<path
   class="st0"
   d="M 5351.1,6583.2 5317,6464.8 h -16.1 V 6448 h 51.2 v 16.7 h -16 l 25.3,87.5 24.3,-87.5 h -15.9 V 6448 h 61.5 v 16.7 h -15.7 l 24.4,87.5 24.9,-87.5 h -16 V 6448 h 49.3 v 16.7 h -15.8 l -33.4,118.4 h -19.2 l -30.1,-105.8 -29.9,105.8 h -18.7 z"
   id="path712"
   inkscape:connector-curvature="0"
   style="fill:#ffffff" />
	<path
   class="st0"
   d="m 5528.5,6565.1 v -100.3 h -14.4 V 6448 h 49.1 v 16.7 h -14.4 V 6565 h 14.4 v 16.7 h -49.1 V 6565 h 14.4 z"
   id="path714"
   inkscape:connector-curvature="0"
   style="fill:#ffffff" />
	<path
   class="st0"
   d="m 5625.8,6565.1 v -100.3 h -27.6 v 34.2 h -16.5 v -51 h 108.4 v 50.9 h -16.5 v -34.2 H 5646 V 6565 h 17.4 v 16.7 h -54.7 V 6565 h 17.1 z"
   id="path716"
   inkscape:connector-curvature="0"
   style="fill:#ffffff" />
	<path
   class="st0"
   d="m 5707.1,6581.8 v -16.7 l 71.7,-100.3 H 5727 v 23.6 h -16.5 V 6448 h 94 v 14.8 l -72.9,102.3 h 58.6 v -25.9 h 16.5 v 42.6 z"
   id="path718"
   inkscape:connector-curvature="0"
   style="fill:#ffffff" />
	<path
   class="st0"
   d="m 5845.6,6565.1 v -100.3 h -17.3 V 6448 h 111.2 v 40.3 H 5923 v -23.6 h -57.1 v 39.8 h 49.7 v 16.7 h -49.7 v 43.8 h 57.1 v -24.3 h 16.5 v 41.1 h -111.2 v -16.7 z"
   id="path720"
   inkscape:connector-curvature="0"
   style="fill:#ffffff" />
	<path
   class="st0"
   d="m 5976.8,6565.1 v -100.3 h -18.4 V 6448 h 54.4 c 11.4,0 20.4,0.9 27,2.6 6.7,1.8 12.2,5.5 16.5,11.2 4.4,5.7 6.5,12.7 6.5,21.2 0,17.7 -9.2,28.8 -27.6,33.4 l 23.6,48.7 h 16.4 v 16.7 h -29 l -30.5,-62.5 H 5997 v 45.8 h 17.1 v 16.7 h -55.7 v -16.7 z m 20.2,-62.6 h 15.8 c 7.6,0 13.3,-0.5 16.9,-1.5 3.6,-1 6.6,-3 8.9,-6.1 2.3,-3 3.5,-7.1 3.5,-12.3 0,-4.4 -1.2,-8 -3.5,-11.1 -2.3,-3 -5.2,-4.9 -8.7,-5.7 -3.4,-0.8 -8.7,-1.2 -15.7,-1.2 H 5997 Z"
   id="path722"
   inkscape:connector-curvature="0"
   style="fill:#ffffff" />
	<path
   class="st0"
   d="m 6104.9,6565.1 v -100.3 h -17.3 V 6448 h 54.7 v 16.7 h -16.5 V 6565 h 41 v -45.5 h 18.9 v 62.2 h -98.1 V 6565 h 17.3 z"
   id="path724"
   inkscape:connector-curvature="0"
   style="fill:#ffffff" />
	<path
   class="st0"
   d="m 6290.7,6534.8 h -48.2 l -10.2,30.3 h 16.3 v 16.7 h -52.7 v -16.7 h 16.2 l 36.5,-102 h -16.2 V 6448 h 68.4 v 15.1 H 6284 l 37.5,102 h 15 v 16.7 H 6284 v -16.7 h 16.6 z m -5.1,-15.7 -17.8,-56 h -1.8 l -18.5,56 z"
   id="path726"
   inkscape:connector-curvature="0"
   style="fill:#ffffff" />
	<path
   class="st0"
   d="m 6364.8,6565.1 v -100.3 h -19.1 V 6448 h 45.7 l 58.7,104 v -87.3 h -19 V 6448 h 54.9 v 16.7 h -19.7 v 118.4 h -20.7 l -64.2,-114.2 v 96.1 h 19.1 v 16.7 h -54.8 V 6565 h 19.1 z"
   id="path728"
   inkscape:connector-curvature="0"
   style="fill:#ffffff" />
	<path
   class="st0"
   d="m 6517,6565.1 v -100.3 h -18.2 V 6448 h 51.8 c 14.3,0 25.3,0.7 33,2.2 7.7,1.5 15.2,4.8 22.5,10 7.2,5.2 13,12.3 17.4,21.4 4.3,9.1 6.5,19.4 6.5,31 0,13.2 -2.1,24.7 -6.3,34.4 -4.2,9.8 -9.6,17 -16.4,21.8 -6.8,4.8 -14.8,8.2 -24.1,10.1 -9.3,1.9 -21.2,2.8 -35.6,2.8 h -48.7 V 6565 h 18.1 z m 20.2,0 h 10.6 c 11.8,0 21.1,-0.7 28,-2.2 6.9,-1.5 12.7,-4 17.5,-7.6 4.7,-3.6 8.6,-8.9 11.5,-16.1 2.9,-7.2 4.4,-15.6 4.4,-25.4 0,-11.6 -2.4,-21.5 -7.3,-29.5 -4.8,-8.1 -11,-13.4 -18.6,-15.8 -7.5,-2.5 -19.1,-3.7 -34.8,-3.7 h -11.4 v 100.3 z"
   id="path730"
   inkscape:connector-curvature="0"
   style="fill:#ffffff" />
</g>





































































































































































































































































</svg>