<?xml version="1.0" encoding="UTF-8" standalone="no"?>
<!-- Generator: Adobe Illustrator 21.0.0, SVG Export Plug-In . SVG Version: 6.00 Build 0)  -->

<svg
   xmlns:dc="http://purl.org/dc/elements/1.1/"
   xmlns:cc="http://creativecommons.org/ns#"
   xmlns:rdf="http://www.w3.org/1999/02/22-rdf-syntax-ns#"
   xmlns:svg="http://www.w3.org/2000/svg"
   xmlns="http://www.w3.org/2000/svg"
   xmlns:sodipodi="http://sodipodi.sourceforge.net/DTD/sodipodi-0.dtd"
   xmlns:inkscape="http://www.inkscape.org/namespaces/inkscape"
   version="1.1"
   id="Layer_1"
   x="0px"
   y="0px"
   viewBox="0 0 1000 1000"
   xml:space="preserve"
   sodipodi:docname="4w.svg"
   width="1000"
   height="1000"
   inkscape:version="0.92.4 (5da689c313, 2019-01-14)"><metadata
   id="metadata29807"><rdf:RDF><cc:Work
       rdf:about=""><dc:format>image/svg+xml</dc:format><dc:type
         rdf:resource="http://purl.org/dc/dcmitype/StillImage" /><dc:title></dc:title></cc:Work></rdf:RDF></metadata><defs
   id="defs29805" /><sodipodi:namedview
   pagecolor="#ffffff"
   bordercolor="#666666"
   borderopacity="1"
   objecttolerance="10"
   gridtolerance="10"
   guidetolerance="10"
   inkscape:pageopacity="0"
   inkscape:pageshadow="2"
   inkscape:window-width="1920"
   inkscape:window-height="1017"
   id="namedview29803"
   showgrid="false"
   inkscape:zoom="0.32"
   inkscape:cx="548.9375"
   inkscape:cy="614.13421"
   inkscape:window-x="-8"
   inkscape:window-y="-8"
   inkscape:window-maximized="1"
   inkscape:current-layer="Layer_1" />
<style
   type="text/css"
   id="style2">
	.st0{fill:#FFFFFF;}
	.st1{fill:none;stroke:#C9AC83;stroke-width:20;stroke-miterlimit:10;}
	.st2{fill:none;stroke:#000000;stroke-width:15;stroke-miterlimit:10;}
	.st3{fill:#CAAC83;stroke:#000000;stroke-width:25;stroke-miterlimit:10;stroke-opacity:0;}
	.st4{fill:#C9AC83;}
	.st5{fill:#998265;}
	.st6{fill:none;stroke:#C9AC83;stroke-width:150;stroke-miterlimit:10;}
	.st7{fill:#F2F2F2;}
	.st8{fill:none;stroke:#000000;stroke-width:40;stroke-miterlimit:10;}
	.st9{fill:#FFFFFF;stroke:#FFFFFF;stroke-width:40;stroke-miterlimit:10;}
	.st10{fill:none;stroke:#000000;stroke-width:20;stroke-miterlimit:10;}
	.st11{fill:none;stroke:#FFFFFF;stroke-width:20;stroke-miterlimit:10;}
	.st12{fill:#CAAC83;}
	.st13{opacity:0;fill:none;stroke:#000000;stroke-width:25;stroke-miterlimit:10;}
</style>
























































































































































































<rect
   x="-5.9499974"
   y="-5.6503882"
   class="st0"
   width="1021.3501"
   height="1021.3501"
   id="rect954"
   style="fill:#ffffff;stroke-width:0.30693296" />
<path
   class="st10"
   d="M 916.53699,657.2635"
   id="path956"
   inkscape:connector-curvature="0"
   style="fill:none;stroke:#000000;stroke-width:6.138659;stroke-miterlimit:10" />
<path
   class="st10"
   d="M 53.656379,657.2635"
   id="path958"
   inkscape:connector-curvature="0"
   style="fill:none;stroke:#000000;stroke-width:6.138659;stroke-miterlimit:10" />
<path
   class="st10"
   d="m 95.24579,666.87051 c 357.66896,0 357.60758,-261.59896 828.4734,-261.59896"
   id="path960"
   inkscape:connector-curvature="0"
   style="fill:none;stroke:#000000;stroke-width:6.138659;stroke-miterlimit:10" />
<path
   class="st10"
   d="m 104.17755,862.11055 c 357.66895,0 357.60756,-261.59895 828.47336,-261.59895"
   id="path962"
   inkscape:connector-curvature="0"
   style="fill:none;stroke:#000000;stroke-width:6.138659;stroke-miterlimit:10" />
<g
   id="g974"
   transform="matrix(0.30693294,0,0,0.30693294,-82.775314,-3546.4594)">
	<path
   d="m 930.8,14256.2 -125.9,24.6 -172.9,-285.6 -27.6,5.4 -18.7,-95.7 207.3,-40.5 18.7,95.7 -29.9,5.8 80.8,163 26.2,-183.9 -29.6,5.8 -18.7,-95.7 174.2,-34 18.7,95.7 -29.6,5.8 94.3,160.4 14.1,-181.6 -28.8,5.6 -18.7,-95.7 161.3,-31.5 18.7,95.7 -27.6,5.4 -53.7,329.9 -124.2,24.3 -84.2,-143.6 z"
   id="path964"
   inkscape:connector-curvature="0" />
	<path
   d="m 1632.5,13969.1 -181.9,113.6 -51.7,-82.8 26.1,-16.3 -112.5,-180.2 -26.6,16.6 -51.7,-82.8 182.4,-113.9 51.7,82.8 -22.1,13.8 32.9,52.7 80,-50 -32.9,-52.7 -22.4,14 -51.7,-82.8 182.2,-113.7 51.7,82.8 -26.1,16.3 112.5,180.2 26.1,-16.3 51.7,82.8 -182.2,113.7 -51.7,-82.8 22.4,-14 -35.4,-56.7 -80,50 35.4,56.7 22.1,-13.8 z"
   id="path966"
   inkscape:connector-curvature="0" />
	<path
   d="m 2265.2,13601.4 -345.1,179.1 -44.9,-86.6 28.1,-14.6 -97.8,-188.5 -28.6,14.8 -44.9,-86.6 345.6,-179.3 60.1,115.7 -94.9,49.3 -15.1,-29.1 -82.2,42.6 28.9,55.6 71.5,-37.1 38.2,73.6 -71.5,37.1 30.8,59.3 82.2,-42.6 -15.1,-29.1 94.9,-49.3 z"
   id="path968"
   inkscape:connector-curvature="0" />
	<path
   d="m 2477.4,13532.5 -155.7,42.5 -25.7,-94.1 30,-8.2 17.9,-225 -31.7,8.6 -25.7,-94.1 282.6,-77.1 25.7,94.1 -31.7,8.6 131.1,184.4 28.8,-7.9 25.7,94.1 -205.2,56 -23.5,-86.2 34.5,-9.4 -28.5,-45.4 -100.6,27.4 -3.8,54.2 32.2,-8.8 z m -43,-303.5 -7.3,118.9 70.4,-19.2 z"
   id="path970"
   inkscape:connector-curvature="0" />
	<path
   d="m 3187.5,13419.8 -386.3,34.6 -8.7,-97.2 36.5,-3.3 -18.9,-211.6 -36.5,3.3 -8.7,-97.2 232,-20.7 8.7,97.2 -38.5,3.4 18.9,211.6 96,-8.6 -5.8,-65.1 96.9,-8.7 z"
   id="path972"
   inkscape:connector-curvature="0" />
</g>
<g
   id="g1006"
   transform="matrix(0.30693294,0,0,0.30693294,-82.775314,-3546.4594)">
	<path
   d="m 703.7,14487.9 28.1,-0.3 -0.7,42.5 -108.1,1.1 c -0.2,-2.7 -0.2,-4.1 -0.2,-4.2 -0.1,-12.6 2.5,-24 7.9,-34.1 2.7,-5.2 6.6,-10.3 11.5,-15.4 4.9,-5.1 10.9,-10.3 17.9,-15.5 11.9,-9 19.5,-15.4 23,-19.4 3.4,-4.1 5.1,-8.2 5.1,-12.3 0,-4 -1.2,-7.2 -3.6,-9.7 -2.4,-2.5 -5.9,-3.8 -10.6,-3.7 -10,0.1 -15,6.5 -14.8,19.2 l -35,-0.7 c 0.6,-15.6 5.6,-26.7 15.2,-33.3 9.6,-6.5 21.8,-9.9 36.6,-10 16.1,-0.2 29.3,3.4 39.4,10.7 10.1,7.4 15.2,17.1 15.3,29.1 0.1,7.7 -2.4,14.9 -7.4,21.6 -5.1,6.6 -15,13.8 -29.6,21.4 -11.8,6.1 -19.7,10.7 -23.7,13.8 -4.1,3.2 -7.2,6.9 -9.3,10.9 l 42.8,-0.4 z"
   id="path976"
   inkscape:connector-curvature="0" />
	<path
   d="m 772.3,14460 c -1.8,-22.1 2.6,-39.7 13.2,-52.8 10.5,-13.1 23.7,-20.3 39.5,-21.6 16.5,-1.3 30.8,3.9 43.1,15.6 12.2,11.7 19.1,28.2 20.8,49.5 1.8,22.4 -2.6,40 -13.2,53 -10.6,13 -23.8,20.1 -39.5,21.4 -16.4,1.3 -30.7,-3.9 -43,-15.6 -12.2,-11.7 -19.2,-28.2 -20.9,-49.5 z m 44.1,-3.5 c 1.3,16.9 3.5,27.9 6.4,32.9 2.9,5.1 6.7,7.4 11.1,7.1 4.5,-0.4 7.8,-3.4 9.8,-9.1 2,-5.6 2.3,-16.6 1,-33.1 -1.4,-17.1 -3.5,-28.2 -6.4,-33.1 -3,-4.9 -6.7,-7.1 -11,-6.8 -4.3,0.3 -7.5,3.1 -9.6,8.4 -2.2,5.3 -2.6,16.5 -1.3,33.7 z"
   id="path978"
   inkscape:connector-curvature="0" />
	<path
   d="m 1035.6,14498 -80.2,13.1 -5,-30.8 19.1,-3.1 -9.9,-60.6 c -3.3,1.5 -8,2.7 -14,3.7 -1.9,0.3 -3.6,0.5 -4.9,0.5 l -4.9,-29.7 c 0.8,-0.1 1.6,-0.2 2.4,-0.3 8.4,-1.4 16,-4.3 22.6,-8.7 6.8,-4.5 11.4,-9.3 13.8,-14.4 l 20.1,-3.3 17.3,105.9 18.5,-3 z"
   id="path980"
   inkscape:connector-curvature="0" />
	<path
   d="m 1086.1,14455 32.1,-11.6 c 4.9,6.3 11.1,8.5 18.7,6.5 12.5,-3.3 16.4,-15.2 11.7,-35.8 -6.3,7.4 -14.6,12.5 -25.1,15.3 -11.8,3.1 -22.8,1.8 -33,-3.8 -10.4,-5.7 -17.2,-14.6 -20.4,-26.7 -3.8,-14.4 -1.6,-27 6.6,-38 8.1,-10.9 19.1,-18.2 32.8,-21.8 17.2,-4.5 33,-2.4 47.4,6.3 14.4,8.9 24.5,24.5 30.5,47 5.2,19.8 4.3,37.1 -2.8,52.1 -7.1,14.9 -20.7,24.9 -40.9,30.3 -12.8,3.4 -24.3,3.5 -34.3,0.4 -10.3,-3.3 -18,-10 -23.3,-20.2 z m 56.8,-64.8 c -5.2,-19.8 -13.7,-28.2 -25.3,-25.1 -9.1,2.4 -12.1,9.3 -9.1,20.8 1.5,5.9 4.1,10 7.6,12.3 3.5,2.5 7.4,3.2 11.8,2.1 5.5,-1.5 10.5,-4.9 15,-10.1 z"
   id="path982"
   inkscape:connector-curvature="0" />
	<path
   d="m 1632,14257.1 -25.9,16.2 -23.1,-36.9 25.9,-16.2 c 9.4,8.1 18.3,9.5 26.9,4.1 6.2,-3.9 7.7,-8.3 4.6,-13.3 -1.6,-2.6 -4,-4.1 -7.3,-4.4 -3.5,-0.4 -10,0 -19.5,1.4 -12,1.6 -21.2,2.3 -27.6,1.9 -5.9,-0.2 -11.9,-1.9 -17.9,-5 -6,-3.1 -10.9,-7.6 -14.6,-13.6 -6.7,-10.7 -8.4,-21.2 -5.3,-31.6 3.1,-10.3 9.8,-18.7 19.9,-25 10.1,-6.3 20.5,-8.8 31.1,-7.4 l -4.5,-7.1 26.1,-16.3 20.5,32.8 -25.7,16.1 c -8.8,-7.1 -17.2,-8.1 -25.2,-3.1 -5.6,3.5 -6.9,7.7 -3.9,12.5 1.4,2.3 3.3,3.6 5.7,3.7 2.3,0.2 9,-0.2 20,-1.3 14.8,-1.4 25,-2.1 30.4,-1.9 2.7,0.1 5.8,0.6 9.3,1.6 3.4,1 6.6,2.3 9.4,3.9 6.4,3.5 11.6,8.4 15.5,14.7 6,9.7 7.6,20.1 4.6,31.2 -2.9,11.3 -9.9,20.3 -20.8,27.2 -10.2,6.4 -21.2,9.1 -33.2,8.2 z"
   id="path984"
   inkscape:connector-curvature="0" />
	<path
   d="m 1792.5,14154.7 -35.6,23.7 -89.7,-65.9 -7.8,5.2 -18,-27.1 58.7,-39 18,27.1 -8.5,5.6 45.7,39.9 -15.4,-60 -8.4,5.6 -18,-27.1 49.3,-32.7 18,27.1 -8.4,5.6 49.5,37.3 -18.9,-57.7 -8.1,5.4 -18,-27.1 45.6,-30.3 18,27.1 -7.8,5.2 25.6,108.4 -35.1,23.3 -44.3,-33.4 z"
   id="path986"
   inkscape:connector-curvature="0" />
	<path
   d="m 1981.3,14030 -65.3,41.6 -17.5,-27.4 10.5,-6.7 -38.1,-59.7 -10.5,6.7 -17.5,-27.4 65.3,-41.6 17.5,27.4 -10.5,6.7 38.1,59.7 10.5,-6.7 z"
   id="path988"
   inkscape:connector-curvature="0" />
	<path
   d="m 2095.5,13961.9 -65.9,38.4 -16.4,-28.1 10.1,-5.9 -35.7,-61.2 -13.5,7.9 12.4,21.3 -22,12.8 -28.8,-49.4 116.3,-67.8 28.8,49.4 -22,12.8 -12.4,-21.3 -13.4,7.8 35.7,61.2 10.4,-6 z"
   id="path990"
   inkscape:connector-curvature="0" />
	<path
   d="m 2262.6,13875.6 -120.1,59.6 -13.8,-27.8 26.6,-96.9 -30.4,15.1 7.5,15 -27.9,13.8 -20.7,-41.7 118.1,-58.6 12.2,24.7 -28.1,101.6 35.1,-17.4 -8.2,-16.6 28.3,-14.1 z"
   id="path992"
   inkscape:connector-curvature="0" />
	<path
   d="m 2406.8,13816.5 -120.2,48.3 -12.1,-30.2 9.8,-3.9 -26.4,-65.7 -10,4 -12.1,-30.2 120.4,-48.4 16.2,40.3 -33.1,13.3 -4.1,-10.1 -28.6,11.5 7.8,19.4 24.9,-10 10.3,25.6 -24.9,10 8.3,20.7 28.6,-11.5 -4.1,-10.1 33.1,-13.3 z"
   id="path994"
   inkscape:connector-curvature="0" />
	<path
   d="m 2506.5,13784.2 -70.6,21.5 -9.5,-31.1 10.6,-3.2 -20.7,-67.7 -10.6,3.2 -9.5,-31.1 70.6,-21.5 c 6.4,-1.9 12.3,-3.6 17.8,-5.1 5.5,-1.4 10.2,-2.5 14.2,-3.3 4,-0.8 7.7,-1.3 11.1,-1.6 9.7,-0.8 18.3,1.1 26,5.9 7.7,4.9 13,11.8 15.7,20.7 2.1,6.7 2.2,13.4 0.4,19.9 -1.8,6.5 -5.2,11.9 -10.1,16.1 l 27,24.2 9.3,-2.8 9.5,31.1 -46.8,14.3 -44.5,-44.4 -16,4.9 6.7,22 9.8,-3 z m -40.7,-98.5 7.6,24.8 5.6,-1.7 c 7.3,-2.2 12.3,-4 14.7,-5.2 2.7,-1.3 4.7,-3.3 6,-5.9 1.3,-2.5 1.5,-5.5 0.5,-8.8 -1,-3.4 -2.8,-5.7 -5.3,-7.1 -2.6,-1.5 -5.4,-2 -8.5,-1.5 -3,0.4 -8.3,1.8 -15.9,4.1 z"
   id="path996"
   inkscape:connector-curvature="0" />
	<path
   d="m 2735.2,13726.8 -126.2,28 -7,-31.7 11.9,-2.6 -15.3,-69.1 -11.9,2.6 -7,-31.7 75.8,-16.8 7,31.7 -12.6,2.8 15.3,69.1 31.4,-7 -4.7,-21.3 31.7,-7 z"
   id="path998"
   inkscape:connector-curvature="0" />
	<path
   d="m 2805.2,13715.3 -53.2,8.2 -4.9,-32.1 10.2,-1.6 14.4,-73.8 -10.8,1.7 -4.9,-32.1 96.5,-14.8 4.9,32.1 -10.8,1.7 36.4,66 9.8,-1.5 4.9,32.1 -70.1,10.8 -4.5,-29.4 11.8,-1.8 -7.7,-16.1 -34.4,5.3 -3.3,17.8 11,-1.7 z m -2.8,-102.1 -6.9,39.1 24,-3.7 z"
   id="path1000"
   inkscape:connector-curvature="0" />
	<path
   d="m 2973.6,13693.6 -55.5,5 -2.9,-32.4 11.9,-1.1 -6.4,-70.5 -11.9,1.1 -2.9,-32.4 64.1,-5.8 55.6,66.3 -3.5,-38.3 -11,1 -2.9,-32.4 54.6,-4.9 2.9,32.4 -11.8,1.1 9.4,104.7 -44.5,4 -64.4,-76.7 4.3,47.7 12,-1.1 z"
   id="path1002"
   inkscape:connector-curvature="0" />
	<path
   d="m 3167,13680.8 -63.1,2.1 -1.1,-32.5 10.6,-0.4 -2.4,-70.8 -10.6,0.4 -1.1,-32.5 65,-2.2 c 14.8,-0.5 27,0 36.4,1.5 9.5,1.5 18.5,5 27,10.3 8.5,5.5 15.2,13 20.3,22.6 2.5,4.6 4.5,9.6 5.9,14.9 1.4,5.3 2.2,10.9 2.4,16.7 0.4,11.8 -1.8,22.6 -6.4,32.5 -4.6,9.8 -10.7,17.4 -18.1,22.8 -7.2,5.4 -15.3,9 -24.1,10.9 -8.7,1.8 -22.3,3 -40.7,3.7 z m -3.4,-103.3 2.4,70.8 5,-0.2 c 12.4,-0.4 20.3,-4 23.8,-10.7 3.4,-6.7 5,-15 4.6,-25 -0.2,-6 -1.2,-11.9 -2.9,-17.7 -1.8,-5.8 -4.8,-10.2 -9,-13.3 -4.1,-3.1 -11.4,-4.4 -21.8,-4.1 z"
   id="path1004"
   inkscape:connector-curvature="0" />
</g>
<g
   id="g1026"
   transform="matrix(0.30693294,0,0,0.30693294,-82.775314,-3546.4594)">
	<path
   d="m 728.1,13636.7 35.7,11 c -2.4,14.6 -8.8,26.8 -19.2,36.4 -10.5,9.7 -25.3,15 -44.3,15.7 -26,1 -45.5,-5 -58.6,-18.1 -13.1,-13 -20,-29.3 -20.8,-48.8 -0.8,-19.6 4.7,-36.6 16.5,-50.8 11.8,-14.2 27.5,-21.7 47.1,-22.5 15.9,-0.6 29.1,2.8 39.4,10.3 l -0.4,-9.1 32.6,-1.3 2,49.6 -33.9,1.3 c -2,-6.1 -5.2,-10.9 -9.5,-14.3 -4.3,-3.3 -9.1,-4.9 -14.5,-4.7 -14.7,0.6 -21.6,13.5 -20.6,38.8 1,25.4 9.1,37.8 24.3,37.2 13.6,-0.5 21.6,-10.8 24.2,-30.7 z"
   id="path1008"
   inkscape:connector-curvature="0" />
	<path
   d="m 878.3,13681.9 -73.1,10.2 -4.5,-32.2 10.9,-1.5 -9.8,-70.1 -10.9,1.5 -4.5,-32.2 73.1,-10.2 c 6.6,-0.9 12.7,-1.7 18.3,-2.2 5.6,-0.6 10.5,-0.9 14.5,-1.1 4.1,-0.1 7.8,-0.1 11.3,0.1 9.7,0.7 17.9,4 24.7,9.8 6.9,6 11,13.6 12.3,22.9 1,7 0.1,13.5 -2.8,19.7 -2.8,6.1 -7,10.9 -12.5,14.4 l 22.9,28.2 9.7,-1.4 4.5,32.2 -48.5,6.8 -37,-50.8 -16.5,2.3 3.2,22.7 10.2,-1.4 z m -24.9,-103.6 3.6,25.6 5.8,-0.8 c 7.6,-1.1 12.7,-2 15.4,-2.8 2.8,-0.9 5.1,-2.5 6.8,-4.9 1.7,-2.3 2.3,-5.2 1.8,-8.6 -0.5,-3.5 -1.9,-6.1 -4.2,-7.9 -2.3,-1.8 -5,-2.8 -8.2,-2.8 -3,0 -8.5,0.5 -16.3,1.6 z"
   id="path1010"
   inkscape:connector-curvature="0" />
	<path
   d="m 1043.1,13650.5 -52.1,13.6 -8.2,-31.5 10,-2.6 6.8,-74.9 -10.6,2.8 -8.2,-31.5 94.5,-24.6 8.2,31.5 -10.6,2.8 43,62 9.6,-2.5 8.2,31.5 -68.6,17.9 -7.5,-28.8 11.5,-3 -9.3,-15.2 -33.6,8.8 -1.5,18 10.8,-2.8 z m -13.2,-101.3 -2.9,39.6 23.5,-6.1 z"
   id="path1012"
   inkscape:connector-curvature="0" />
	<path
   d="m 1240.1,13587.2 -77,29.7 -11.7,-30.3 13.3,-5.1 -25.5,-66.1 -13.8,5.3 -11.7,-30.3 124.8,-48.2 16.1,41.7 -33.7,13 -4.4,-11.4 -28.3,10.9 7.5,19.5 21.9,-8.4 10,25.8 -21.9,8.4 8,20.8 14.7,-5.7 z"
   id="path1014"
   inkscape:connector-curvature="0" />
	<path
   d="m 1411.9,13507.1 -68,34.6 -14.8,-29 10.4,-5.3 -32.1,-63.1 -13.9,7.1 11.2,22 -22.7,11.6 -26,-51 120,-61.1 26,51 -22.7,11.6 -11.2,-22 -13.8,7 32.1,63.1 10.7,-5.5 z"
   id="path1016"
   inkscape:connector-curvature="0" />
	<path
   d="m 2603.6,12911.8 -75.3,15.5 -6.6,-31.8 11.6,-2.4 -14.3,-69.3 -11.6,2.4 -6.6,-31.8 81.3,-16.8 c 15.9,-3.3 28.5,-4.9 37.6,-4.9 9,0.1 16.5,2.5 22.6,7.2 6.1,4.8 10,11 11.5,18.8 1.6,7.5 0.5,14 -3.3,19.4 -3.8,5.6 -9,10 -15.4,13.2 10,0.9 18.1,3.7 24.3,8.6 6.3,4.9 10.3,11.1 11.8,18.6 1.8,8.9 0.5,17.1 -3.9,24.5 -4.5,7.4 -11.5,13 -21.1,17 -9.4,3.9 -23.6,7.9 -42.6,11.8 z m -33.7,-101.4 5,24.3 11.4,-2.3 c 7.7,-1.6 12.6,-3.8 14.5,-6.5 1.8,-2.7 2.4,-5.9 1.6,-9.5 -0.6,-3.1 -2.3,-5.7 -4.9,-7.8 -2.6,-2.1 -8.6,-2.1 -18.1,-0.2 z m 10,48.5 5.4,26.2 11.6,-2.4 c 7.4,-1.5 12.5,-3.6 15.4,-6.2 2.8,-2.6 3.7,-6.3 2.7,-11.1 -0.9,-4.5 -3.1,-7.6 -6.4,-9.2 -3.3,-1.5 -9.1,-1.4 -17.3,0.3 z"
   id="path1018"
   inkscape:connector-curvature="0" />
	<path
   d="m 2835.8,12875 -128.5,17 -4.3,-32.2 10.5,-1.4 -9.3,-70.2 -10.6,1.4 -4.3,-32.2 128.7,-17 5.7,43.1 -35.3,4.7 -1.4,-10.8 -30.6,4 2.7,20.7 26.6,-3.5 3.6,27.4 -26.6,3.5 2.9,22.1 30.6,-4 -1.4,-10.8 35.3,-4.7 z"
   id="path1020"
   inkscape:connector-curvature="0" />
	<path
   d="m 2997.2,12862.3 -129.2,9.5 -2.4,-32.4 10.5,-0.8 -5.2,-70.6 -10.7,0.8 -2.4,-32.4 129.4,-9.5 3.2,43.3 -35.5,2.6 -0.8,-10.9 -30.8,2.3 1.5,20.8 26.8,-2 2,27.6 -26.8,2 1.6,22.2 30.8,-2.3 -0.8,-10.9 35.5,-2.6 z"
   id="path1022"
   inkscape:connector-curvature="0" />
	<path
   d="m 3103.1,12859.1 -73.8,1.5 -0.6,-32.5 11,-0.2 -1.4,-70.8 -11,0.2 -0.6,-32.5 73.8,-1.5 c 6.6,-0.1 12.8,-0.1 18.5,0 5.7,0.1 10.5,0.3 14.6,0.7 4,0.3 7.8,0.8 11.2,1.5 9.5,1.8 17.3,6.1 23.4,12.7 6.1,6.8 9.3,14.9 9.5,24.2 0.1,7 -1.6,13.4 -5.1,19.2 -3.5,5.7 -8.2,10 -14.1,12.8 l 19.4,30.7 9.8,-0.2 0.6,32.5 -48.9,1 -30.7,-54.9 -16.7,0.3 0.5,22.9 10.3,-0.2 z m -12.4,-105.8 0.5,25.9 5.9,-0.1 c 7.7,-0.2 12.9,-0.5 15.6,-1 2.9,-0.5 5.4,-1.9 7.3,-4.1 2,-2.1 2.9,-4.8 2.9,-8.4 -0.1,-3.5 -1.1,-6.3 -3.2,-8.3 -2.1,-2.1 -4.7,-3.4 -7.8,-3.8 -3,-0.4 -8.5,-0.5 -16.4,-0.4 z"
   id="path1024"
   inkscape:connector-curvature="0" />
</g>
<circle
   class="st4"
   cx="338.306"
   cy="851.15295"
   r="15.714967"
   id="circle1028"
   style="fill:#c9ac83;stroke-width:0.30693296" />
<g
   id="g1066"
   transform="matrix(0.30693294,0,0,0.30693294,-82.775314,-3546.4594)">
	<path
   class="st1"
   d="m 1780.1,12630.5 c -10.7,85.3 -14.4,152 -13.5,234.1 1.6,146.9 15.8,285.9 79.9,387.5"
   id="path1030"
   inkscape:connector-curvature="0"
   style="fill:none;stroke:#c9ac83;stroke-width:20;stroke-miterlimit:10" />
	<path
   class="st2"
   d="M 1449.5,12736.5"
   id="path1032"
   inkscape:connector-curvature="0"
   style="fill:none;stroke:#000000;stroke-width:15;stroke-miterlimit:10" />
	<path
   class="st1"
   d="m 1502,12703.7 c 218.1,80.4 264.6,160.9 264.6,160.9"
   id="path1034"
   inkscape:connector-curvature="0"
   style="fill:none;stroke:#c9ac83;stroke-width:20;stroke-miterlimit:10" />
	<g
   id="g1050">
		<path
   class="st3"
   d="m 1851.4,12144.8 c 0,0 -81,-71 -117.3,-146.8 34.6,108.9 86,166.5 86,166.5 -124.6,-27.9 -209.2,-152.8 -184.1,-278 l 6.1,-30.3 30.2,6.7 c 124.5,27.8 204.2,156.7 179.1,281.9 z"
   id="path1036"
   inkscape:connector-curvature="0"
   style="fill:#caac83;stroke:#000000;stroke-width:25;stroke-miterlimit:10;stroke-opacity:0" />
		<path
   class="st3"
   d="m 1831.5,12355.3 c 0,0 -81,-71 -117.3,-146.8 34.6,108.9 86,166.5 86,166.5 -124.6,-27.9 -209.2,-152.8 -184.1,-278 l 6.1,-30.3 30.2,6.7 c 124.5,27.9 204.2,156.8 179.1,281.9 z"
   id="path1038"
   inkscape:connector-curvature="0"
   style="fill:#caac83;stroke:#000000;stroke-width:25;stroke-miterlimit:10;stroke-opacity:0" />
		<path
   class="st3"
   d="m 1813.7,12572.5 c 0,0 -81,-71 -117.3,-146.8 34.6,108.9 86,166.5 86,166.5 -124.6,-27.9 -209.2,-152.8 -184.1,-278 l 6.1,-30.3 30.2,6.7 c 124.5,27.9 204.2,156.7 179.1,281.9 z"
   id="path1040"
   inkscape:connector-curvature="0"
   style="fill:#caac83;stroke:#000000;stroke-width:25;stroke-miterlimit:10;stroke-opacity:0" />
		<path
   class="st3"
   d="m 1849.4,12014.2 c 0,0 92.4,-58.1 140.3,-128.5 -50.9,104 -111.4,153.6 -111.4,153.6 130.4,-7.3 234.4,-119.2 227.1,-249.7 l -1.8,-31.6 -31.6,1.8 c -130.4,7.3 -229.9,123.9 -222.6,254.4 z"
   id="path1042"
   inkscape:connector-curvature="0"
   style="fill:#caac83;stroke:#000000;stroke-width:25;stroke-miterlimit:10;stroke-opacity:0" />
		<path
   class="st3"
   d="m 1836.5,12231.4 c 0,0 92.4,-58.1 140.3,-128.5 -50.9,104 -111.4,153.6 -111.4,153.6 130.4,-7.3 234.4,-119.2 227.1,-249.7 l -1.8,-31.6 -31.6,1.8 c -130.4,7.3 -229.9,123.9 -222.6,254.4 z"
   id="path1044"
   inkscape:connector-curvature="0"
   style="fill:#caac83;stroke:#000000;stroke-width:25;stroke-miterlimit:10;stroke-opacity:0" />
		<path
   class="st3"
   d="m 1818.7,12436.8 c 0,0 92.4,-58.1 140.3,-128.5 -50.9,104 -111.4,153.6 -111.4,153.6 130.4,-7.3 234.4,-119.2 227.1,-249.7 l -1.8,-31.6 -31.6,1.8 c -130.3,7.3 -229.9,123.9 -222.6,254.4 z"
   id="path1046"
   inkscape:connector-curvature="0"
   style="fill:#caac83;stroke:#000000;stroke-width:25;stroke-miterlimit:10;stroke-opacity:0" />
		<path
   class="st3"
   d="m 1808.2,12647.3 c 0,0 92.4,-58.1 140.3,-128.5 -50.9,104 -111.4,153.6 -111.4,153.6 130.4,-7.3 234.4,-119.2 227.1,-249.7 l -1.8,-31.6 -31.6,1.8 c -130.4,7.3 -230,124 -222.6,254.4 z"
   id="path1048"
   inkscape:connector-curvature="0"
   style="fill:#caac83;stroke:#000000;stroke-width:25;stroke-miterlimit:10;stroke-opacity:0" />
	</g>
	<g
   id="g1064">
		<path
   class="st3"
   d="m 1099.8,12445 c 0,0 -97,46.7 -181,50.4 113.7,10.9 186.9,-13.9 186.9,-13.9 -74.5,103.7 -222.6,132.6 -327.9,60.4 l -25.5,-17.5 18,-25.1 c 74.4,-103.7 224.2,-126.5 329.5,-54.3 z"
   id="path1052"
   inkscape:connector-curvature="0"
   style="fill:#caac83;stroke:#000000;stroke-width:25;stroke-miterlimit:10;stroke-opacity:0" />
		<path
   class="st3"
   d="m 1285.7,12545.8 c 0,0 -97,46.7 -181,50.4 113.7,10.9 186.9,-13.9 186.9,-13.9 -74.5,103.7 -222.6,132.6 -327.9,60.4 l -25.5,-17.5 18,-25.1 c 74.4,-103.6 224.2,-126.4 329.5,-54.3 z"
   id="path1054"
   inkscape:connector-curvature="0"
   style="fill:#caac83;stroke:#000000;stroke-width:25;stroke-miterlimit:10;stroke-opacity:0" />
		<path
   class="st3"
   d="m 1478.6,12647.3 c 0,0 -97,46.7 -181,50.4 113.7,10.9 186.9,-13.9 186.9,-13.9 -74.5,103.7 -222.6,132.6 -327.9,60.4 l -25.5,-17.5 18,-25.1 c 74.4,-103.6 224.2,-126.5 329.5,-54.3 z"
   id="path1056"
   inkscape:connector-curvature="0"
   style="fill:#caac83;stroke:#000000;stroke-width:25;stroke-miterlimit:10;stroke-opacity:0" />
		<path
   class="st3"
   d="m 1173.7,12492.7 c 0,0 -17.2,-107.8 -63.2,-179.5 75.8,87.6 97.6,162.7 97.6,162.7 44.4,-122.9 -17.8,-262.4 -140.7,-306.8 l -29.7,-10.7 -10.7,29.7 c -44.5,122.9 23.8,260.2 146.7,304.6 z"
   id="path1058"
   inkscape:connector-curvature="0"
   style="fill:#caac83;stroke:#000000;stroke-width:25;stroke-miterlimit:10;stroke-opacity:0" />
		<path
   class="st3"
   d="m 1355.7,12589.5 c 0,0 -17.2,-107.8 -63.2,-179.5 75.8,87.6 97.6,162.7 97.6,162.7 44.4,-122.9 -17.8,-262.4 -140.7,-306.8 l -29.7,-10.7 -10.7,29.7 c -44.5,122.9 23.8,260.2 146.7,304.6 z"
   id="path1060"
   inkscape:connector-curvature="0"
   style="fill:#caac83;stroke:#000000;stroke-width:25;stroke-miterlimit:10;stroke-opacity:0" />
		<path
   class="st3"
   d="m 1545.2,12681.7 c 0,0 -17.2,-107.8 -63.2,-179.5 75.8,87.6 97.6,162.7 97.6,162.7 44.4,-122.9 -17.8,-262.4 -140.7,-306.8 l -29.7,-10.7 -10.7,29.7 c -44.5,122.9 23.8,260.2 146.7,304.6 z"
   id="path1062"
   inkscape:connector-curvature="0"
   style="fill:#caac83;stroke:#000000;stroke-width:25;stroke-miterlimit:10;stroke-opacity:0" />
	</g>
</g>









































































































































































































































</svg>